<svg width="62" height="62" viewBox="0 0 62 62" fill="none" xmlns="http://www.w3.org/2000/svg">
<circle cx="31" cy="31" r="29.5" stroke="none" stroke-width="3"/>
<g clip-path="url(#clip0)">
<path d="M22.0265 18.6613H15.2963C14.0562 18.6613 13.0527 19.6668 13.0527 20.9046V45.5825C13.0527 46.8224 14.0562 47.8257 15.2963 47.8257H22.0266C23.2666 47.8257 24.2699 46.8224 24.2699 45.5825V20.9046C24.2698 19.6668 23.2665 18.6613 22.0265 18.6613ZM16.418 41.0955C15.7979 41.0955 15.2963 40.5938 15.2963 39.9734C15.2963 39.3537 15.7979 38.852 16.418 38.852C17.0379 38.852 17.5395 39.3537 17.5395 39.9734C17.5395 40.5938 17.0379 41.0955 16.418 41.0955ZM22.0265 27.6349H15.2963V25.3916H22.0266V27.6349H22.0265ZM22.0265 23.1481H15.2963V20.9046H22.0266V23.1481H22.0265Z" fill="#122D54"/>
<path d="M36.6088 43.3387V41.0956H29.8783V43.3387C28.6385 43.3387 27.6348 44.3424 27.6348 45.5825H38.8519C38.8519 44.3424 37.8486 43.3387 36.6088 43.3387Z" fill="#122D54"/>
<path d="M46.7043 14.1743H19.7831C18.5431 14.1743 17.5396 15.1799 17.5396 16.4178H19.7831H26.5134H46.7044V34.3651H26.5133V38.8521H46.7043C47.9441 38.8521 48.9475 37.8488 48.9475 36.6082V16.4178C48.9475 15.1798 47.944 14.1743 46.7043 14.1743ZM33.2437 37.7303C32.6236 37.7303 32.1219 37.229 32.1219 36.6082C32.1219 35.9885 32.6236 35.4868 33.2437 35.4868C33.8638 35.4868 34.3655 35.9885 34.3655 36.6082C34.3655 37.229 33.8637 37.7303 33.2437 37.7303Z" fill="#122D54"/>
</g>
<defs>
<clipPath id="clip0">
<rect width="35.8947" height="35.8947" fill="#E5E5E5" transform="translate(13.0527 13.0526)"/>
</clipPath>
</defs>
</svg>
