<svg width="24" height="24" viewBox="0 0 24 24" fill="none" xmlns="http://www.w3.org/2000/svg">
    <path d="M7.53923 16.3524C8.16051 16.3524 8.66416 15.8487 8.66416 15.2275C8.66416 14.6062 8.16051 14.1025 7.53923 14.1025C6.91795 14.1025 6.41431 14.6062 6.41431 15.2275C6.41431 15.8487 6.91795 16.3524 7.53923 16.3524Z" fill="white"/>
    <path d="M12.5726 16.3732L10.9462 16.3307C10.976 15.1868 10.5369 13.9941 9.80047 13.2179C9.12913 12.5105 7.66356 11.953 6.39136 11.9186L6.43382 10.2922C7.83253 10.3293 9.85197 10.9103 10.9805 12.0993C12.0169 13.1917 12.6141 14.7901 12.5726 16.3732Z" fill="white"/>
    <path d="M15.3829 16.3642H13.7565C13.7565 14.4179 13.5632 13.5315 13.4005 13.1313C13.0576 12.2898 12.5499 11.5253 11.9074 10.8828C11.2648 10.2403 10.5004 9.7326 9.6589 9.38964C8.90082 9.08243 7.38465 8.89178 6.41333 8.89178V7.26538C7.31689 7.26538 9.16195 7.43344 10.2706 7.88251C11.3138 8.30744 12.2615 8.93664 13.0579 9.73312C13.8544 10.5296 14.4836 11.4773 14.9086 12.5205C15.2275 13.3084 15.3829 14.5661 15.3829 16.3642Z" fill="white"/>
    <path d="M18.4384 16.2224H17.0831C17.0831 15.5275 17.009 13.8912 16.8888 13.303C16.5135 11.4745 15.6099 9.79627 14.29 8.47636C12.9701 7.15646 11.2919 6.25286 9.46341 5.87755C8.85351 5.75286 7.56594 5.68419 6.90454 5.68419V4.32886C7.60931 4.32886 8.99717 4.39843 9.73538 4.55023C11.1297 4.83575 12.4542 5.39299 13.6333 6.19018C14.7938 6.97354 15.7928 7.97262 16.5762 9.13306C17.3732 10.3124 17.9307 11.6368 18.2171 13.031C18.3743 13.8017 18.4384 15.6016 18.4384 16.2224Z" fill="white"/>
    <path d="M4.82812 5.00662L7.11322 6.3258V3.68652L4.82812 5.00662Z" fill="white"/>
    <path d="M17.7603 18.5084L19.0795 16.2224H16.4402L17.7603 18.5084Z" fill="white"/>
</svg>
