<svg width="13" height="13" viewBox="0 0 13 13" fill="none" xmlns="http://www.w3.org/2000/svg">
    <path
        d="M5.5 0C4.40039 0 3.5 1.04117 3.5 2.30769V2.88462H4.5V2.30769C4.5 1.66316 4.94141 1.15385 5.5 1.15385H7.5C8.05859 1.15385 8.5 1.66316 8.5 2.30769V2.88462H9.5V2.30769C9.5 1.04117 8.59961 0 7.5 0H5.5ZM1.5 3.46154C0.671875 3.46154 0 4.23678 0 5.19231V5.76923H2.5V5.48077C2.5 5.32076 2.61133 5.19231 2.75 5.19231H3.75C3.88867 5.19231 4 5.32076 4 5.48077V5.76923H9V5.48077C9 5.32076 9.11133 5.19231 9.25 5.19231H10.25C10.3887 5.19231 10.5 5.32076 10.5 5.48077V5.76923H13V5.19231C13 4.23678 12.3281 3.46154 11.5 3.46154H1.5ZM0 6.34615V10.9615C0 11.9171 0.671875 12.6923 1.5 12.6923H11.5C12.3281 12.6923 13 11.9171 13 10.9615V6.34615H10.5V7.21154C10.5 7.37154 10.3887 7.5 10.25 7.5H9.25C9.11133 7.5 9 7.37154 9 7.21154V6.34615H4V7.21154C4 7.37154 3.88867 7.5 3.75 7.5H2.75C2.61133 7.5 2.5 7.37154 2.5 7.21154V6.34615H0Z"
        fill="white"
    />
</svg>
