<svg width="49" height="49" viewBox="0 0 49 49" fill="none" xmlns="http://www.w3.org/2000/svg">
    <path d="M30.7402 16.697L31.4102 16.0269C30.2376 14.8543 28.7299 14.2679 27.2222 14.2679C25.7145 14.2679 24.2068 14.8543 23.0342 16.0269L23.7043 16.697C24.7094 15.7756 25.9658 15.2731 27.2222 15.2731C28.4786 15.2731 29.735 15.7756 30.7402 16.697ZM29.9863 17.3671C29.2325 16.6132 28.2273 16.1944 27.2222 16.1944C26.2171 16.1944 25.2119 16.6132 24.4581 17.3671L25.1282 18.0372C25.7145 17.4509 26.4684 17.1996 27.2222 17.1996C27.976 17.1996 28.7299 17.4509 29.3162 18.0372L29.9863 17.3671ZM29.735 22.644H28.0598V19.2936H26.3846V22.644H18.0085C17.0872 22.644 16.3333 23.3979 16.3333 24.3192V27.6697C16.3333 28.591 17.0872 29.3449 18.0085 29.3449H29.735C30.6564 29.3449 31.4102 28.591 31.4102 27.6697V24.3192C31.4102 23.3979 30.6564 22.644 29.735 22.644ZM20.5213 26.832H18.8461V25.1568H20.5213V26.832ZM23.453 26.832H21.7778V25.1568H23.453V26.832ZM26.3846 26.832H24.7094V25.1568H26.3846V26.832Z" fill="white"/>
    <path d="M36.6625 12.2938C43.4482 18.8701 43.6051 29.8173 37.0113 36.621C30.4176 43.4247 19.4708 43.6108 12.6852 37.0345L15.6824 33.9419C20.7716 38.8741 28.9816 38.7345 33.927 33.6318C38.8723 28.529 39.0162 17.6396 33.927 12.7074C28.8378 7.7752 17.2817 7.6046 12.3364 12.7074C18.9302 5.90368 29.8769 5.71758 36.6625 12.2938Z" fill="white"/>
    <path d="M9.91144 31.2795L17.5757 32.1873L11.2274 38.8842L9.91144 31.2795Z" fill="white"/>
</svg>
