<svg width="62" height="62" viewBox="0 0 20 20" fill="none" xmlns="http://www.w3.org/2000/svg">
<rect width="62" height="62" fill="black" fill-opacity="0"/>
<path d="M15.4667 5.77222L16 5.28333C15.0667 4.42778 13.8667 4 12.6667 4C11.4667 4 10.2667 4.42778 9.33333 5.28333L9.86667 5.77222C10.6667 5.1 11.6667 4.73333 12.6667 4.73333C13.6667 4.73333 14.6667 5.1 15.4667 5.77222ZM14.8667 6.26111C14.2667 5.71111 13.4667 5.40556 12.6667 5.40556C11.8667 5.40556 11.0667 5.71111 10.4667 6.26111L11 6.75C11.4667 6.32222 12.0667 6.13889 12.6667 6.13889C13.2667 6.13889 13.8667 6.32222 14.3333 6.75L14.8667 6.26111V6.26111ZM14.6667 10.1111H13.3333V7.66667H12V10.1111H5.33333C4.6 10.1111 4 10.6611 4 11.3333V13.7778C4 14.45 4.6 15 5.33333 15H14.6667C15.4 15 16 14.45 16 13.7778V11.3333C16 10.6611 15.4 10.1111 14.6667 10.1111ZM7.33333 13.1667H6V11.9444H7.33333V13.1667ZM9.66667 13.1667H8.33333V11.9444H9.66667V13.1667ZM12 13.1667H10.6667V11.9444H12V13.1667Z" fill="white"/>
</svg>
