<svg width="24" height="24" viewBox="0 0 24 24" fill="none" xmlns="http://www.w3.org/2000/svg">
<path fill-rule="evenodd" clip-rule="evenodd" d="M11.7777 0.399994C5.55239 0.399994 0.5 5.45238 0.5 11.6777C0.5 17.9029 5.55239 22.9553 11.7777 22.9553C18.0029 22.9553 23.0553 17.9029 23.0553 11.6777C23.0553 5.45238 18.0029 0.399994 11.7777 0.399994Z" fill="rgba(0,0,0,0.54)"/>
<rect x="6.29199" y="6.73419" width="11.208" height="3.10009" rx="0.799659" fill="white"/>
<rect x="6.29199" y="10.7882" width="11.208" height="3.10009" rx="0.799659" fill="white"/>
<rect x="6.29199" y="14.8421" width="11.208" height="3.10009" rx="0.799659" fill="white"/>
<path fill-rule="evenodd" clip-rule="evenodd" d="M12.1735 8.86602L12.4657 7.66971L9.86072 9.25178L11.4428 11.8568L11.7424 10.6306C13.2378 10.9959 14.1676 11.7302 14.6596 12.9596C14.7258 11.3912 14.1939 9.67658 12.1735 8.86602Z" fill="rgba(0,0,0,0.54)"/>
<path fill-rule="evenodd" clip-rule="evenodd" d="M11.7674 15.855L11.4487 17.0446L14.0882 15.5207L12.5643 12.8812L12.2376 14.1005C10.7507 13.702 9.83731 12.9473 9.37274 11.7073C9.27171 13.2739 9.76544 14.9998 11.7674 15.855Z" fill="rgba(0,0,0,0.54)"/>
</svg>
