<svg width="21" height="21" viewBox="0 0 21 21" version="1.1" xmlns="http://www.w3.org/2000/svg" xmlns:xlink="http://www.w3.org/1999/xlink">
<title>ic_build</title>
<desc>Created using Figma</desc>
<g id="Canvas" transform="translate(-5100 2423)">
<g id="ic_build">
<g id="Icon 24px">
<g id="Shape">
<use xlink:href="#path0_stroke" transform="translate(5101 -2422)" fill="#FFFFFF"/>
</g>
</g>
</g>
</g>
<defs>
<path id="path0_stroke" d="M 18.7512 15.5297L 18.2192 16.0584L 18.2569 16.0963L 18.2994 16.1284L 18.7512 15.5297ZM 10.9038 7.63479L 10.2048 7.36292L 10.028 7.81754L 10.3719 8.16351L 10.9038 7.63479ZM 9.61031 1.64853L 10.1422 1.1198L 10.1422 1.1198L 9.61031 1.64853ZM 3.22895 0.520682L 2.91489 -0.160398L 1.94091 0.288717L 2.69702 1.04941L 3.22895 0.520682ZM 6.93703 4.25125L 7.46896 4.77997L 7.9945 4.25125L 7.46896 3.72252L 6.93703 4.25125ZM 4.35 6.85397L 3.82418 7.38877L 4.35607 7.91173L 4.88193 7.38269L 4.35 6.85397ZM 0.555672 3.1234L 1.08149 2.5886L 0.344209 1.86371L -0.115955 2.78961L 0.555672 3.1234ZM 1.67672 9.54345L 1.14479 10.0722L 1.14479 10.0722L 1.67672 9.54345ZM 7.62691 10.8448L 8.15884 10.3161L 7.81113 9.96626L 7.35218 10.1469L 7.62691 10.8448ZM 15.4743 18.7397L 14.9423 19.2685L 14.9423 19.2685L 15.4743 18.7397ZM 16.6815 18.7397L 16.1496 18.211L 16.6815 18.7397ZM 18.6649 16.7443L 18.1947 16.16L 18.1623 16.1861L 18.133 16.2156L 18.6649 16.7443ZM 19.2831 15.001L 11.4358 7.10606L 10.3719 8.16351L 18.2192 16.0584L 19.2831 15.001ZM 11.6028 7.90666C 12.4858 5.63651 11.9911 2.97984 10.1422 1.1198L 9.07838 2.17725C 10.5065 3.614 10.8741 5.64222 10.2048 7.36292L 11.6028 7.90666ZM 10.1422 1.1198C 8.18259 -0.851724 5.25352 -1.23877 2.91489 -0.160398L 3.543 1.20176C 5.34363 0.37147 7.58864 0.678485 9.07838 2.17725L 10.1422 1.1198ZM 2.69702 1.04941L 6.4051 4.77997L 7.46896 3.72252L 3.76088 -0.00804332L 2.69702 1.04941ZM 6.4051 3.72252L 3.81807 6.32524L 4.88193 7.38269L 7.46896 4.77997L 6.4051 3.72252ZM 4.87581 6.31917L 1.08149 2.5886L 0.0298546 3.65821L 3.82418 7.38877L 4.87581 6.31917ZM -0.115955 2.78961C -1.2991 5.17025 -0.797869 8.11774 1.14479 10.0722L 2.20865 9.01472C 0.701929 7.49887 0.340818 5.24091 1.2273 3.45719L -0.115955 2.78961ZM 1.14479 10.0722C 2.99436 11.9329 5.63979 12.4331 7.90164 11.5427L 7.35218 10.1469C 5.64724 10.8181 3.636 10.4507 2.20865 9.01472L 1.14479 10.0722ZM 7.09498 11.3735L 14.9423 19.2685L 16.0062 18.211L 8.15884 10.3161L 7.09498 11.3735ZM 14.9423 19.2685C 15.5805 19.9105 16.5753 19.9105 17.2135 19.2685L 16.1496 18.211C 16.1129 18.2479 16.0868 18.25 16.0779 18.25C 16.069 18.25 16.0429 18.2479 16.0062 18.211L 14.9423 19.2685ZM 17.2135 19.2685L 19.1969 17.273L 18.133 16.2156L 16.1496 18.211L 17.2135 19.2685ZM 19.1352 17.3286C 19.8652 16.741 20.0174 15.5456 19.2029 14.931L 18.2994 16.1284C 18.2718 16.1075 18.2581 16.0846 18.2529 16.0721C 18.2482 16.0609 18.2504 16.0595 18.2499 16.069C 18.2491 16.0868 18.2396 16.1239 18.1947 16.16L 19.1352 17.3286Z"/>
</defs>
</svg>
