<svg width="23" height="22" viewBox="0 0 23 22" fill="none" xmlns="http://www.w3.org/2000/svg">
<path d="M2.94154 0.159416C1.58438 0.514761 0.507887 1.59856 0.159714 2.96663C-0.0108195 3.62402 -0.0641113 17.0951 0.095764 17.8662C0.379987 19.2236 1.48135 20.4211 2.81364 20.8298C3.46736 21.0288 17.341 21.0679 18.0977 20.8689C19.3945 20.5313 20.5314 19.3942 20.8689 18.0972C21.0678 17.3403 21.0288 3.46412 20.8298 2.81028C20.4212 1.47774 19.224 0.376176 17.8668 0.0919011C17.1136 -0.0644503 3.56683 -0.00759527 2.94154 0.159416ZM18.1084 1.87573C18.5845 2.12802 19.0889 2.69302 19.2524 3.16207C19.3732 3.51031 19.3803 3.94738 19.3803 10.5674V17.6033L19.1955 17.9977C18.9326 18.5591 18.62 18.8825 18.08 19.149L17.6074 19.38H10.5694C3.95053 19.38 3.51354 19.3729 3.16537 19.2521C2.6964 19.0886 2.13151 18.584 1.87926 18.1078L1.68741 17.7454L1.66965 10.6279C1.64478 2.42651 1.59504 3.05902 2.33047 2.32346C3.05168 1.60211 2.40152 1.65186 10.6049 1.66963L17.746 1.68384L18.1084 1.87573Z" fill="#DC4639"/>
<path d="M8.49464 4.98145C8.15357 5.19466 8.11804 5.32258 8.11804 6.33531V7.26276H6.44468C4.59013 7.26276 4.37341 7.30185 4.17801 7.67851C4.08208 7.86685 4.06787 8.39275 4.06787 11.7792V15.6631L4.30946 15.9047L4.55105 16.1464H5.51741H6.48376V14.6646C6.48376 13.062 6.51219 12.9483 6.89233 12.9483C7.24051 12.9483 7.26538 13.062 7.26538 14.6575V16.1464H8.08252H8.89966V14.6646C8.89966 13.062 8.92808 12.9483 9.30823 12.9483C9.6564 12.9483 9.68127 13.062 9.68127 14.6575V16.1464H10.4984H11.3155V14.6646C11.3155 13.0833 11.344 12.9483 11.6992 12.9483C12.0901 12.9483 12.0972 12.9731 12.0972 14.6219V16.1464H12.9143H13.7314V14.7037C13.7314 13.0691 13.7705 12.9234 14.1791 12.9625C14.545 12.998 14.5806 13.1615 14.5841 14.7428V16.1464H15.4759C17.103 16.1464 17 16.4449 17 11.7401C17 6.8399 17.2238 7.26276 14.6445 7.26276H12.9605L12.9392 6.30333L12.9143 5.34746L12.6834 5.11293L12.4489 4.88195L10.5872 4.86419C8.83571 4.84287 8.70781 4.85353 8.49464 4.98145Z" fill="#DC4639"/>
<path d="M20.6934 20H19V13.4727L16.9785 14.0996V12.7227L20.5117 11.457H20.6934V20Z" fill="#DC4639"/>
<path d="M20.6934 20V22H22.6934V20H20.6934ZM19 20H17V22H19V20ZM19 13.4727H21V10.7584L18.4075 11.5624L19 13.4727ZM16.9785 14.0996H14.9785V16.8139L17.571 16.0098L16.9785 14.0996ZM16.9785 12.7227L16.3041 10.8398L14.9785 11.3146V12.7227H16.9785ZM20.5117 11.457V9.45703H20.1643L19.8373 9.57418L20.5117 11.457ZM20.6934 11.457H22.6934V9.45703H20.6934V11.457ZM20.6934 18H19V22H20.6934V18ZM21 20V13.4727H17V20H21ZM18.4075 11.5624L16.3861 12.1894L17.571 16.0098L19.5925 15.3829L18.4075 11.5624ZM18.9785 14.0996V12.7227H14.9785V14.0996H18.9785ZM17.653 14.6055L21.1862 13.3399L19.8373 9.57418L16.3041 10.8398L17.653 14.6055ZM20.5117 13.457H20.6934V9.45703H20.5117V13.457ZM18.6934 11.457V20H22.6934V11.457H18.6934Z" fill="white"/>
</svg>
