<svg width="296" height="202" viewBox="0 0 296 202" fill="none" xmlns="http://www.w3.org/2000/svg">
<mask id="mask0" mask-type="alpha" maskUnits="userSpaceOnUse" x="0" y="0" width="296" height="202">
<path d="M0.25 3C0.25 1.48122 1.48122 0.25 3 0.25H293C294.519 0.25 295.75 1.48122 295.75 3V199C295.75 200.519 294.519 201.75 293 201.75H3C1.48122 201.75 0.25 200.519 0.25 199V3Z" fill="white"/>
<path d="M0.25 3C0.25 1.48122 1.48122 0.25 3 0.25H293C294.519 0.25 295.75 1.48122 295.75 3V199C295.75 200.519 294.519 201.75 293 201.75H3C1.48122 201.75 0.25 200.519 0.25 199V3Z" stroke="white" stroke-width="0.5"/>
</mask>
<g mask="url(#mask0)">
<path d="M73.9415 62.1594C72.5844 62.5148 71.5079 63.5986 71.1597 64.9666C70.9892 65.624 70.9359 79.0951 71.0958 79.8662C71.38 81.2236 72.4813 82.4211 73.8136 82.8298C74.4674 83.0288 88.341 83.0679 89.0977 82.8689C90.3945 82.5313 91.5314 81.3942 91.8689 80.0972C92.0678 79.3403 92.0288 65.4641 91.8298 64.8103C91.4212 63.4777 90.224 62.3762 88.8668 62.0919C88.1136 61.9355 74.5668 61.9924 73.9415 62.1594ZM89.1084 63.8757C89.5845 64.128 90.0889 64.693 90.2524 65.1621C90.3732 65.5103 90.3803 65.9474 90.3803 72.5674V79.6033L90.1955 79.9977C89.9326 80.5591 89.62 80.8825 89.08 81.149L88.6074 81.38H81.5694C74.9505 81.38 74.5135 81.3729 74.1654 81.2521C73.6964 81.0886 73.1315 80.584 72.8793 80.1078L72.6874 79.7454L72.6696 72.6279C72.6448 64.4265 72.595 65.059 73.3305 64.3235C74.0517 63.6021 73.4015 63.6519 81.6049 63.6696L88.746 63.6838L89.1084 63.8757Z" fill="#009588"/>
<path d="M79.4946 66.9815C79.1536 67.1947 79.118 67.3226 79.118 68.3353V69.2628H77.4447C75.5901 69.2628 75.3734 69.3018 75.178 69.6785C75.0821 69.8668 75.0679 70.3928 75.0679 73.7792V77.6631L75.3095 77.9047L75.551 78.1464H76.5174H77.4838V76.6646C77.4838 75.062 77.5122 74.9483 77.8923 74.9483C78.2405 74.9483 78.2654 75.062 78.2654 76.6575V78.1464H79.0825H79.8997V76.6646C79.8997 75.062 79.9281 74.9483 80.3082 74.9483C80.6564 74.9483 80.6813 75.062 80.6813 76.6575V78.1464H81.4984H82.3155V76.6646C82.3155 75.0833 82.344 74.9483 82.6992 74.9483C83.0901 74.9483 83.0972 74.9731 83.0972 76.6219V78.1464H83.9143H84.7314V76.7037C84.7314 75.0691 84.7705 74.9234 85.1791 74.9625C85.545 74.998 85.5806 75.1615 85.5841 76.7428V78.1464H86.4759C88.103 78.1464 88 78.4449 88 73.7401C88 68.8399 88.2238 69.2628 85.6445 69.2628H83.9605L83.9392 68.3033L83.9143 67.3475L83.6834 67.1129L83.4489 66.882L81.5872 66.8642C79.8357 66.8429 79.7078 66.8535 79.4946 66.9815Z" fill="#009588"/>
<path d="M92.3223 77.4727C92.3223 78.6523 92.0781 79.5547 91.5898 80.1797C91.1016 80.8047 90.3867 81.1172 89.4453 81.1172C88.5156 81.1172 87.8047 80.8105 87.3125 80.1973C86.8203 79.584 86.5684 78.7051 86.5566 77.5605V75.9902C86.5566 74.7988 86.8027 73.8945 87.2949 73.2773C87.791 72.6602 88.5039 72.3516 89.4336 72.3516C90.3633 72.3516 91.0742 72.6582 91.5664 73.2715C92.0586 73.8809 92.3105 74.7578 92.3223 75.9023V77.4727ZM90.6289 75.75C90.6289 75.043 90.5312 74.5293 90.3359 74.209C90.1445 73.8848 89.8438 73.7227 89.4336 73.7227C89.0352 73.7227 88.7402 73.877 88.5488 74.1855C88.3613 74.4902 88.2617 74.9688 88.25 75.6211V77.6953C88.25 78.3906 88.3438 78.9082 88.5312 79.248C88.7227 79.584 89.0273 79.752 89.4453 79.752C89.8594 79.752 90.1582 79.5898 90.3418 79.2656C90.5254 78.9414 90.6211 78.4453 90.6289 77.7773V75.75Z" fill="#009588"/>
<path d="M86.5566 77.5605H84.5566V77.5708L84.5567 77.581L86.5566 77.5605ZM87.2949 73.2773L85.7361 72.0243L85.7313 72.0304L87.2949 73.2773ZM91.5664 73.2715L90.0066 74.5233L90.0105 74.5282L91.5664 73.2715ZM92.3223 75.9023H94.3223V75.8921L94.3222 75.8819L92.3223 75.9023ZM90.3359 74.209L88.6137 75.2257L88.6209 75.238L88.6283 75.2502L90.3359 74.209ZM88.5488 74.1855L86.8492 73.1314L86.8455 73.1374L88.5488 74.1855ZM88.25 75.6211L86.2503 75.5852L86.25 75.6031V75.6211H88.25ZM88.5312 79.248L86.7801 80.2142L86.7867 80.2262L86.7935 80.2381L88.5312 79.248ZM90.6289 77.7773L92.6288 77.8007L92.6289 77.789V77.7773H90.6289ZM90.3223 77.4727C90.3223 78.4145 90.1219 78.81 90.0138 78.9484L93.1659 81.411C94.0343 80.2994 94.3223 78.8901 94.3223 77.4727H90.3223ZM90.0138 78.9484C89.9774 78.995 89.8999 79.1172 89.4453 79.1172V83.1172C90.8735 83.1172 92.2257 82.6144 93.1659 81.411L90.0138 78.9484ZM89.4453 79.1172C88.9988 79.1172 88.9139 78.9973 88.8723 78.9455L85.7527 81.4491C86.6955 82.6238 88.0325 83.1172 89.4453 83.1172V79.1172ZM88.8723 78.9455C88.7633 78.8096 88.5657 78.4339 88.5565 77.5401L84.5567 77.581C84.571 78.9763 84.8774 80.3584 85.7527 81.4491L88.8723 78.9455ZM88.5566 77.5605V75.9902H84.5566V77.5605H88.5566ZM88.5566 75.9902C88.5566 75.0315 88.761 74.6467 88.8586 74.5243L85.7313 72.0304C84.8444 73.1424 84.5566 74.5661 84.5566 75.9902H88.5566ZM88.8538 74.5303C88.9021 74.4703 88.9919 74.3516 89.4336 74.3516V70.3516C88.0159 70.3516 86.68 70.85 85.7361 72.0243L88.8538 74.5303ZM89.4336 74.3516C89.8801 74.3516 89.965 74.4715 90.0066 74.5233L93.1262 72.0197C92.1834 70.8449 90.8464 70.3516 89.4336 70.3516V74.3516ZM90.0105 74.5282C90.1152 74.6578 90.3132 75.0279 90.3224 75.9228L94.3222 75.8819C94.3079 74.4877 94.002 73.1039 93.1223 72.0148L90.0105 74.5282ZM90.3223 75.9023V77.4727H94.3223V75.9023H90.3223ZM92.6289 75.75C92.6289 74.9497 92.5349 73.9736 92.0435 73.1678L88.6283 75.2502C88.5621 75.1416 88.5706 75.1013 88.5909 75.208C88.6097 75.3074 88.6289 75.4812 88.6289 75.75H92.6289ZM92.0582 73.1922C91.4698 72.1955 90.4748 71.7227 89.4336 71.7227V75.7227C89.3735 75.7227 89.2122 75.7095 89.0179 75.6048C88.8155 75.4957 88.6837 75.3444 88.6137 75.2257L92.0582 73.1922ZM89.4336 71.7227C88.4237 71.7227 87.4459 72.1694 86.8492 73.1314L90.2484 75.2397C90.1732 75.361 90.0388 75.5068 89.8407 75.6105C89.6508 75.7098 89.494 75.7227 89.4336 75.7227V71.7227ZM86.8455 73.1374C86.372 73.9068 86.2639 74.8267 86.2503 75.5852L90.2497 75.657C90.254 75.4171 90.274 75.2647 90.2915 75.1805C90.3102 75.0907 90.3152 75.1313 90.2521 75.2337L86.8455 73.1374ZM86.25 75.6211V77.6953H90.25V75.6211H86.25ZM86.25 77.6953C86.25 78.4996 86.3462 79.4278 86.7801 80.2142L90.2824 78.2819C90.3234 78.3562 90.3093 78.3643 90.2883 78.2485C90.2683 78.1379 90.25 77.9591 90.25 77.6953H86.25ZM86.7935 80.2381C87.3745 81.2579 88.3799 81.752 89.4453 81.752V77.752C89.5062 77.752 89.6714 77.7656 89.8689 77.8745C90.0742 77.9877 90.2032 78.1425 90.269 78.2579L86.7935 80.2381ZM89.4453 81.752C90.4826 81.752 91.498 81.2826 92.0821 80.2511L88.6015 78.2801C88.676 78.1485 88.815 77.987 89.0263 77.8724C89.227 77.7635 89.3912 77.752 89.4453 77.752V81.752ZM92.0821 80.2511C92.5168 79.4835 92.6197 78.5772 92.6288 77.8007L88.629 77.754C88.6261 78.0042 88.6069 78.1711 88.5875 78.2715C88.5671 78.3772 88.5559 78.3606 88.6015 78.2801L92.0821 80.2511ZM92.6289 77.7773V75.75H88.6289V77.7773H92.6289Z" fill="white"/>
</g>
</svg>
