<svg width="18" height="16" viewBox="0 0 18 16" xmlns="http://www.w3.org/2000/svg">
<path d="M12.375 9.17836V13.7143H2.25V3.42874H5.625V1.14307H1.125C0.504 1.14307 0 1.65506 0 2.2859V14.8571C0 15.4891 0.504 16 1.125 16H13.5C14.1221 16 14.625 15.4891 14.625 14.8571V9.17836H12.375Z" />
<path d="M17.775 3.54292L13.275 0.114411C13.1062 -0.0158722 12.8768 -0.0364432 12.6866 0.060698C12.4954 0.157839 12.375 0.35555 12.375 0.571546V2.2858H10.6875C7.27537 2.2858 4.5 5.10518 4.5 8.57141C4.5 8.83655 4.68 9.0674 4.93313 9.12797C4.97588 9.13826 5.01975 9.14283 5.0625 9.14283C5.27175 9.14283 5.46863 9.02397 5.56538 8.8274L5.69813 8.55884C6.561 6.80458 8.29575 5.71431 10.2263 5.71431H12.375V7.42857C12.375 7.64457 12.4954 7.84228 12.6855 7.93942C12.8756 8.03656 13.1051 8.01599 13.275 7.88571L17.775 4.45719C17.9167 4.34977 18 4.17948 18 4.00006C18 3.82063 17.9167 3.65035 17.775 3.54292Z" />
</svg>
