<svg width="16" height="16" viewBox="0 0 16 16" xmlns="http://www.w3.org/2000/svg">
    <path d="M8.78595 11.3454L9.36267 11.9221C9.64665 12.2062 9.64664 12.6666 9.36263 12.9507C9.22062 13.0927 9.03444 13.1637 8.8484 13.1637C8.66222 13.1637 8.47614 13.0927 8.33413 12.9506L6.51598 11.1324C6.51481 11.1312 6.51375 11.1298 6.51258 11.1286C6.49716 11.113 6.48233 11.0968 6.46837 11.0798C6.4642 11.0747 6.46061 11.0691 6.45653 11.064C6.44601 11.0504 6.43544 11.0368 6.42589 11.0225C6.42279 11.0179 6.42027 11.013 6.41721 11.0083C6.40747 10.993 6.39782 10.9775 6.38914 10.9614C6.38735 10.958 6.38594 10.9544 6.38415 10.9511C6.37503 10.9334 6.36626 10.9154 6.3586 10.8969C6.35763 10.8946 6.357 10.8923 6.35603 10.89C6.34812 10.8704 6.3408 10.8505 6.3346 10.83C6.33387 10.8276 6.33343 10.8252 6.33276 10.8228C6.32679 10.8026 6.32146 10.7822 6.31729 10.7613C6.31612 10.7553 6.31554 10.7492 6.31448 10.7431C6.31147 10.7258 6.30842 10.7085 6.30672 10.6908C6.30425 10.6668 6.30303 10.6426 6.30303 10.6182C6.30303 10.5938 6.30425 10.5696 6.30672 10.5456C6.30842 10.5279 6.31152 10.5105 6.31448 10.4932C6.3155 10.4872 6.31608 10.481 6.31729 10.4751C6.32141 10.4544 6.32669 10.4342 6.33256 10.4143C6.33334 10.4116 6.33377 10.4089 6.33465 10.4062C6.3408 10.3859 6.34808 10.3662 6.35593 10.3466C6.3569 10.3442 6.35763 10.3417 6.3586 10.3393C6.36621 10.321 6.37489 10.3033 6.38391 10.2858C6.38575 10.2822 6.38725 10.2785 6.38914 10.2749C6.39768 10.259 6.40718 10.2437 6.41683 10.2286C6.41998 10.2237 6.42264 10.2186 6.42589 10.2137C6.4351 10.2 6.44529 10.1869 6.45542 10.1738C6.45988 10.1681 6.46376 10.1621 6.46841 10.1565C6.48102 10.1412 6.49455 10.1266 6.50832 10.1124C6.51098 10.1096 6.51326 10.1067 6.51598 10.104L8.33413 8.28577C8.61815 8.00179 9.07856 8.00184 9.36267 8.28582C9.64665 8.56984 9.64664 9.0303 9.36263 9.31437L8.786 9.89096L11.6362 9.89091H13.0907V9.11738V6.78788H11.6362H10.6077H7.0302C6.62856 6.78788 6.30294 6.46225 6.30294 6.06061V2.48305V1.45455V0H0.727262C0.325619 0 0 0.325624 0 0.727273V15.2727C0 15.6744 0.325619 16 0.727262 16H12.3635C12.7651 16 13.0907 15.6744 13.0907 15.2727V13.329V11.3455H11.6362L8.78595 11.3454Z" />
    <path d="M12.665 5.33357L7.75781 0.42627V2.48329V5.33357H10.608H12.665Z" />
    <path d="M15.2726 9.89111H15.1594H13.0908V11.3457H14.6774H15.2726C15.6742 11.3457 15.9999 11.02 15.9999 10.6184C15.9999 10.2167 15.6742 9.89111 15.2726 9.89111Z" />
</svg>
