<svg width="20" height="19" viewBox="0 0 20 19" fill="none" xmlns="http://www.w3.org/2000/svg">
<path d="M14.0097 4.2265V0.95002C14.0097 0.426418 13.5689 0 13.0322 0H0.977515C0.4408 0 0 0.426418 0 0.95002V14.3733C0 14.7203 0.212237 15.0535 0.520389 15.2122L7.94869 18.9488C8.27521 19.1055 8.66499 18.8854 8.66499 18.5204V14.881H13.0301C13.5689 14.881 14.0077 14.4526 14.0077 13.931V8.73859H12.0526V12.5069C12.0526 12.7767 11.8424 12.9829 11.5649 12.9829H8.68336V4.92265C8.68336 4.57556 8.47112 4.24236 8.16093 4.0837L3.77945 1.89806H11.5669C11.8445 1.89806 12.0547 2.10432 12.0547 2.37406V4.24236H14.0097V4.2265Z" fill="white"/>
<path d="M16.5177 2.674L19.6951 5.76206C20.1012 6.15873 20.1012 6.74381 19.6951 7.1385L16.5177 10.2266C16.1095 10.6212 15.4912 10.6371 15.0831 10.2424C14.6933 9.86163 14.7402 9.22894 15.1157 8.84814L16.5483 7.4717H10.9955C10.7179 7.4717 10.4404 7.36063 10.2628 7.15437C9.80571 6.68035 9.91999 5.83941 10.5077 5.52406C10.6546 5.44473 10.8342 5.39713 10.9975 5.39713H16.5503C16.5503 5.39713 15.1341 4.01871 15.1177 4.01871C14.7423 3.65576 14.6953 3.00522 15.0851 2.64227C15.4749 2.26345 16.1095 2.27932 16.5177 2.674Z" fill="white"/>
</svg>
