<?xml version="1.0" standalone="no"?>
<!DOCTYPE svg PUBLIC "-//W3C//DTD SVG 20010904//EN"
 "http://www.w3.org/TR/2001/REC-SVG-20010904/DTD/svg10.dtd">
<svg version="1.0" xmlns="http://www.w3.org/2000/svg"
 width="24" height="24" viewBox="0 0 540.000000 540.000000"
 preserveAspectRatio="xMidYMid meet">
<metadata>
Created by potrace 1.15, written by Peter Selinger 2001-2017
</metadata>
<g transform="translate(0.000000,540.000000) scale(0.100000,-0.100000)" stroke="none">
<path d="M455 5381 c-274 -80 -455 -314 -455 -589 0 -104 14 -169 56 -260 147
-321 523 -452 839 -292 l80 40 446 -446 446 -446 -54 -79 c-211 -307 -237
-688 -69 -1024 l52 -102 -386 -310 -385 -309 -75 51 c-110 75 -196 100 -340
100 -128 0 -176 -12 -294 -73 -139 -73 -263 -235 -301 -393 -31 -134 -14 -292
46 -412 66 -134 158 -223 294 -288 103 -48 181 -63 298 -57 200 12 383 124
490 300 100 166 113 382 31 557 -20 44 -22 57 -12 67 29 27 759 604 764 604 3
0 38 -26 77 -58 40 -32 86 -68 103 -80 59 -40 192 -102 280 -129 83 -25 101
-27 269 -27 158 0 189 3 255 23 41 12 84 25 95 27 17 4 39 -33 166 -286 l146
-290 -73 -74 c-80 -82 -142 -194 -164 -297 -18 -84 -8 -258 20 -338 29 -82
107 -198 173 -256 64 -57 212 -130 291 -144 210 -38 400 22 551 174 84 84 126
154 161 271 29 92 25 247 -9 349 -66 199 -237 358 -442 410 -75 19 -194 19
-265 0 -30 -8 -55 -13 -56 -12 -1 1 -68 134 -149 296 -119 238 -144 296 -133
306 7 6 45 37 85 69 121 96 229 244 293 397 l35 85 226 -44 226 -44 6 -72 c15
-202 147 -398 331 -490 96 -48 173 -67 281 -67 188 0 365 83 476 223 191 240
182 579 -22 802 -32 35 -85 81 -116 102 -77 51 -203 93 -300 100 -194 14 -403
-82 -520 -239 -34 -47 -86 -136 -88 -154 0 0 -101 20 -225 46 l-225 47 -6 140
c-10 204 -54 341 -164 511 -70 107 -188 224 -294 294 -45 29 -81 55 -81 58 0
4 47 123 104 266 l104 260 99 -3 c359 -12 643 260 643 615 0 107 -18 184 -66
279 -67 135 -203 254 -346 304 -79 28 -233 37 -320 21 -77 -15 -207 -77 -268
-127 -235 -196 -296 -521 -147 -784 30 -54 138 -171 186 -203 l25 -17 -108
-269 -107 -269 -52 14 c-263 70 -548 17 -794 -148 l-81 -55 -446 446 -446 446
40 80 c135 266 66 580 -167 765 -61 48 -177 103 -251 119 -78 16 -217 12 -287
-8z"/>
</g>
</svg>
