<svg width="34" height="29" viewBox="0 0 34 29" fill="none" xmlns="http://www.w3.org/2000/svg">
<path fill-rule="evenodd" clip-rule="evenodd" d="M4.8336 7.25H2.41693V24.1667C2.41693 25.4958 3.50443 26.5833 4.8336 26.5833H21.7503V24.1667H4.8336V7.25ZM24.1669 2.4165H9.66691C8.33774 2.4165 7.25024 3.504 7.25024 4.83317V19.3332C7.25024 20.6623 8.33774 21.7498 9.66691 21.7498H24.1669C25.4961 21.7498 26.5836 20.6623 26.5836 19.3332V4.83317C26.5836 3.504 25.4961 2.4165 24.1669 2.4165ZM22.9586 13.2917H10.8752V10.875H22.9586V13.2917ZM18.1252 18.1247H10.8752V15.708H18.1252V18.1247ZM22.9586 8.45817H10.8752V6.0415H22.9586V8.45817Z" fill="#DC4639"/>
<path fill-rule="evenodd" clip-rule="evenodd" d="M31 27.0002H34V24.1113H31V27.0002Z" fill="#DC4639"/>
<path fill-rule="evenodd" clip-rule="evenodd" d="M31 14V21.2222H34V14H31Z" fill="#DC4639"/>
</svg>
