<svg width="37" height="34" viewBox="0 0 37 34" fill="none" xmlns="http://www.w3.org/2000/svg">
<path fill-rule="evenodd" clip-rule="evenodd" d="M25.375 4.25H9.625C8.18125 4.25 7 5.50508 7 7.03906V23.7734C7 25.3074 8.18125 26.5625 9.625 26.5625H25.375C26.8188 26.5625 28 25.3074 28 23.7734V7.03906C28 5.50508 26.8188 4.25 25.375 4.25V4.25ZM25 15.9375H10V13.8125H25V15.9375ZM25 21.25H10V19.125H25V21.25ZM25 10.6875H10V8.5625H25V10.6875V10.6875Z" fill="#122D54"/>
<path d="M33.7288 14.7519L34.0817 15.0754L34.4202 14.7369L35.3536 13.8036L35.7071 13.45L35.3536 13.0964C33.6254 11.3683 31.3978 10.5 29.1667 10.5C26.9356 10.5 24.7079 11.3683 22.9798 13.0964L22.6262 13.45L22.9798 13.8036L23.9131 14.7369L24.2516 15.0754L24.6045 14.7519C25.919 13.5469 27.5506 12.9 29.1667 12.9C30.7827 12.9 32.4143 13.5469 33.7288 14.7519ZM33.3702 15.6702L33.7238 15.3167L33.3702 14.9631C32.23 13.8229 30.7042 13.1833 29.1667 13.1833C27.6292 13.1833 26.1034 13.8229 24.9631 14.9631L24.6096 15.3167L24.9631 15.6702L25.8964 16.6036L26.25 16.9571L26.6036 16.6036C27.3129 15.8942 28.2288 15.5833 29.1667 15.5833C30.1046 15.5833 31.0204 15.8942 31.7298 16.6036L32.0833 16.9571L32.4369 16.6036L33.3702 15.6702ZM27.5 22.1667H16.3333C14.7739 22.1667 13.5 23.4405 13.5 25V29.6667C13.5 31.2261 14.7739 32.5 16.3333 32.5H32.6667C34.2261 32.5 35.5 31.2261 35.5 29.6667V25C35.5 23.4405 34.2261 22.1667 32.6667 22.1667H30.8333V18V17.5H30.3333H28H27.5V18V22.1667ZM19.3333 28H18V26.6667H19.3333V28ZM23.4167 28H22.0833V26.6667H23.4167V28ZM27.5 28H26.1667V26.6667H27.5V28Z" fill="#122D54" stroke="white"/>
</svg>
