<svg width="35" height="30" viewBox="0 0 30 30" fill="none" xmlns="http://www.w3.org/2000/svg">
    <path
        fillRule="evenodd"
        clipRule="evenodd"
        d="M14.875 3.05176e-05H2.125C0.95625 3.05176e-05 0 1.12503 0 2.50003V17.5C0 18.875 0.95625 20
            2.125 20H14.875C16.0438 20 17 18.875 17 17.5V2.50003C17 1.12503 16.0438 3.05176e-05 14.875
            3.05176e-05V3.05176e-05ZM15 10H2V8.00003H15V10ZM15 14H2V12H15V14ZM15
            6.00003H2V4.00003H15V6.00003V6.00003Z"
    />
    <path
        d="M25.9412 10.0286L26.0079 10.0897L26.6849 9.41266L27.7071 8.39044L28.4142 7.68333L27.7071
            6.97623C25.7286 4.99767 23.1733 4 20.6111 4C18.0489 4 15.4937 4.99767 13.5151 6.97623L12.808
            7.68333L13.5151 8.39044L14.5373 9.41266L15.2144 10.0897L15.281 10.0286L15.6873 10.4349L16.7096
            11.4571L17.4167 12.1642L18.1238 11.4571C18.8036 10.7773 19.6853 10.4722 20.6111 10.4722C21.5369
            10.4722 22.4187 10.7773 23.0984 11.4571L23.8056 12.1642L24.5127 11.4571L25.5349 10.4349L25.9412
            10.0286ZM18.3333 16.7778H6.55556C4.59772 16.7778 3 18.3755 3 20.3333V25.4444C3 27.4023 4.59772
            29 6.55556 29H24.4444C26.4023 29 28 27.4023 28 25.4444V20.3333C28 18.3755 26.4023 16.7778 24.4444
            16.7778H22.8889V12.6667V11.6667H21.8889H19.3333H18.3333V12.6667V16.7778ZM9.38889
            23.1667H8.83333V22.6111H9.38889V23.1667ZM13.8611 23.1667H13.3056V22.6111H13.8611V23.1667ZM18.3333
            23.1667H17.7778V22.6111H18.3333V23.1667Z"
        strokeWidth="2"
    />
</svg>