<svg width="24" height="24" viewBox="0 0 30 30" fill="none" xmlns="http://www.w3.org/2000/svg">
<path d="M18.8551 11L21.4106 13.6717L15.9648 19.365L11.5011 14.6983L3.23193 23.355L4.80541 25L11.5011 18L15.9648 22.6667L22.9953 15.3283L25.5508 18V11H18.8551Z" />
<path d="M10.9916 8.92308C10.9916 9.84615 10.9071 10.6308 10.7382 11.2769C10.5694 11.9231 10.3329 12.4492 10.0374 12.8462C9.73341 13.2523 9.37033 13.5385 8.93969 13.7231C8.50905 13.9077 8.03619 14 7.50422 14C6.9807 14 6.50784 13.9077 6.0772 13.7231C5.64656 13.5385 5.27503 13.2523 4.97105 12.8462C4.66707 12.44 4.4222 11.9138 4.25332 11.2769C4.08444 10.6308 4 9.84615 4 8.92308V7.04C4 6.11692 4.08444 5.33231 4.25332 4.68615C4.4222 4.04 4.65862 3.52308 4.96261 3.12615C5.26659 2.72923 5.63812 2.44308 6.06876 2.26769C6.49095 2.09231 6.97226 2 7.49578 2C8.02774 2 8.5006 2.09231 8.93124 2.26769C9.36188 2.44308 9.73341 2.72923 10.0374 3.12615C10.3414 3.52308 10.5778 4.04 10.7467 4.68615C10.9156 5.33231 11 6.10769 11 7.04V8.92308H10.9916ZM9.20989 6.74462C9.20989 6.15385 9.16767 5.65539 9.10012 5.24923C9.02413 4.84308 8.91436 4.52 8.76236 4.27077C8.61882 4.02154 8.43305 3.84615 8.22195 3.73538C8.01086 3.61538 7.76598 3.56 7.49578 3.56C7.22557 3.56 6.9807 3.61538 6.7696 3.72615C6.5585 3.83692 6.37274 4.01231 6.22919 4.26154C6.08565 4.51077 5.96743 4.83385 5.89144 5.24C5.81544 5.64615 5.78166 6.14462 5.78166 6.73538V9.2C5.78166 9.79077 5.82388 10.2892 5.89988 10.6954C5.97587 11.1108 6.09409 11.4431 6.23764 11.7015C6.38118 11.96 6.56695 12.1446 6.77805 12.2646C6.98914 12.3846 7.23402 12.44 7.51267 12.44C7.79132 12.44 8.03619 12.3846 8.24729 12.2646C8.45838 12.1446 8.63571 11.96 8.77925 11.7015C8.9228 11.4431 9.03257 11.1108 9.10856 10.6954C9.18456 10.28 9.21834 9.78154 9.21834 9.2V6.74462H9.20989Z"/>
</svg>
