<svg width="15" height="15" viewBox="0 0 15 15" fill="none" xmlns="http://www.w3.org/2000/svg">
<path d="M6.25 13.75H0.75C0.0596997 13.75 -0.5 13.1904 -0.5 12.5V4.5C-0.5 3.80961 0.0596994 3.25 0.75 3.25H5.00003H5.50003V3.75V4.24998V4.74998H5.00003H1.00003V12.25H14V4.74998H10H9.50002V4.24998V3.75V3.25L6.25 13.75ZM6.25 13.75V14H6H5.5V14.5V15V15.5H6H9H9.5V15V14.5V14H9H8.75L6.25 13.75Z" fill="white" stroke="white"/>
<mask id="path-2-inside-1" fill="white">
<path d="M7.49978 0.499979C8.89255 0.498068 10.2284 1.05222 11.2108 2.03946L11.5638 1.68548C9.32333 -0.558984 5.6875 -0.562253 3.44303 1.67824C3.44062 1.68066 3.43821 1.68307 3.43579 1.68548L3.78881 2.03946C4.77118 1.05222 6.10706 0.498068 7.49978 0.499979Z"/>
</mask>
<path d="M7.49978 0.499979C8.89255 0.498068 10.2284 1.05222 11.2108 2.03946L11.5638 1.68548C9.32333 -0.558984 5.6875 -0.562253 3.44303 1.67824C3.44062 1.68066 3.43821 1.68307 3.43579 1.68548L3.78881 2.03946C4.77118 1.05222 6.10706 0.498068 7.49978 0.499979Z" fill="white"/>
<path d="M7.49978 0.499979L7.49841 1.49998L7.50116 1.49998L7.49978 0.499979ZM11.2108 2.03946L10.5019 2.74481L11.21 3.45639L11.9189 2.74561L11.2108 2.03946ZM11.5638 1.68548L12.2719 2.39164L12.9765 1.68516L12.2716 0.979005L11.5638 1.68548ZM3.44303 1.67824L2.73655 0.970509L2.73593 0.971136L3.44303 1.67824ZM3.43579 1.68548L2.72868 0.978378L2.02253 1.68453L2.72773 2.39164L3.43579 1.68548ZM3.78881 2.03946L3.08075 2.74561L3.78961 3.45639L4.49767 2.74481L3.78881 2.03946ZM7.50116 1.49998C8.62741 1.49843 9.70762 1.94654 10.5019 2.74481L11.9197 1.33411C10.7493 0.157898 9.1577 -0.502297 7.49841 -0.50002L7.50116 1.49998ZM11.9189 2.74561L12.2719 2.39164L10.8558 0.979335L10.5027 1.33331L11.9189 2.74561ZM12.2716 0.979005C9.6409 -1.65632 5.3719 -1.66017 2.73655 0.97051L4.14951 2.38598C6.0031 0.535669 9.00577 0.538356 10.8561 2.39196L12.2716 0.979005ZM2.73593 0.971136C2.73592 0.97114 2.73592 0.971145 2.73591 0.97115C2.73591 0.971155 2.7359 0.971159 2.7359 0.971164C2.73589 0.971169 2.73589 0.971173 2.73588 0.971178C2.73588 0.971183 2.73587 0.971188 2.73587 0.971192C2.73587 0.971197 2.73586 0.971202 2.73586 0.971206C2.73585 0.971211 2.73585 0.971216 2.73584 0.971221C2.73584 0.971225 2.73583 0.97123 2.73583 0.971235C2.73582 0.971239 2.73582 0.971244 2.73581 0.971249C2.73581 0.971254 2.7358 0.971258 2.7358 0.971263C2.73579 0.971268 2.73579 0.971272 2.73579 0.971277C2.73578 0.971282 2.73578 0.971287 2.73577 0.971291C2.73577 0.971296 2.73576 0.971301 2.73576 0.971305C2.73575 0.97131 2.73575 0.971315 2.73574 0.97132C2.73574 0.971324 2.73573 0.971329 2.73573 0.971334C2.73572 0.971339 2.73572 0.971343 2.73571 0.971348C2.73571 0.971353 2.7357 0.971357 2.7357 0.971362C2.7357 0.971367 2.73569 0.971371 2.73569 0.971376C2.73568 0.971381 2.73568 0.971386 2.73567 0.97139C2.73567 0.971395 2.73566 0.9714 2.73566 0.971404C2.73565 0.971409 2.73565 0.971414 2.73564 0.971419C2.73564 0.971423 2.73563 0.971428 2.73563 0.971433C2.73562 0.971438 2.73562 0.971442 2.73562 0.971447C2.73561 0.971452 2.73561 0.971456 2.7356 0.971461C2.7356 0.971466 2.73559 0.971471 2.73559 0.971475C2.73558 0.97148 2.73558 0.971485 2.73557 0.971489C2.73557 0.971494 2.73556 0.971499 2.73556 0.971503C2.73555 0.971508 2.73555 0.971513 2.73554 0.971518C2.73554 0.971522 2.73554 0.971527 2.73553 0.971532C2.73553 0.971537 2.73552 0.971541 2.73552 0.971546C2.73551 0.971551 2.73551 0.971555 2.7355 0.97156C2.7355 0.971565 2.73549 0.97157 2.73549 0.971574C2.73548 0.971579 2.73548 0.971584 2.73547 0.971588C2.73547 0.971593 2.73546 0.971598 2.73546 0.971603C2.73546 0.971607 2.73545 0.971612 2.73545 0.971617C2.73544 0.971621 2.73544 0.971626 2.73543 0.971631C2.73543 0.971636 2.73542 0.97164 2.73542 0.971645C2.73541 0.97165 2.73541 0.971654 2.7354 0.971659C2.7354 0.971664 2.73539 0.971669 2.73539 0.971673C2.73538 0.971678 2.73538 0.971683 2.73537 0.971687C2.73537 0.971692 2.73537 0.971697 2.73536 0.971702C2.73536 0.971706 2.73535 0.971711 2.73535 0.971716C2.73534 0.97172 2.73534 0.971725 2.73533 0.97173C2.73533 0.971735 2.73532 0.971739 2.73532 0.971744C2.73531 0.971749 2.73531 0.971753 2.7353 0.971758C2.7353 0.971763 2.73529 0.971768 2.73529 0.971772C2.73529 0.971777 2.73528 0.971782 2.73528 0.971786C2.73527 0.971791 2.73527 0.971796 2.73526 0.971801C2.73526 0.971805 2.73525 0.97181 2.73525 0.971815C2.73524 0.971819 2.73524 0.971824 2.73523 0.971829C2.73523 0.971834 2.73522 0.971838 2.73522 0.971843C2.73521 0.971848 2.73521 0.971852 2.73521 0.971857C2.7352 0.971862 2.7352 0.971867 2.73519 0.971871C2.73519 0.971876 2.73518 0.971881 2.73518 0.971885C2.73517 0.97189 2.73517 0.971895 2.73516 0.9719C2.73516 0.971904 2.73515 0.971909 2.73515 0.971914C2.73514 0.971918 2.73514 0.971923 2.73513 0.971928C2.73513 0.971933 2.73513 0.971937 2.73512 0.971942C2.73512 0.971947 2.73511 0.971951 2.73511 0.971956C2.7351 0.971961 2.7351 0.971966 2.73509 0.97197C2.73509 0.971975 2.73508 0.97198 2.73508 0.971984C2.73507 0.971989 2.73507 0.971994 2.73506 0.971999C2.73506 0.972003 2.73505 0.972008 2.73505 0.972013C2.73504 0.972017 2.73504 0.972022 2.73504 0.972027C2.73503 0.972032 2.73503 0.972036 2.73502 0.972041C2.73502 0.972046 2.73501 0.97205 2.73501 0.972055C2.735 0.97206 2.735 0.972065 2.73499 0.972069C2.73499 0.972074 2.73498 0.972079 2.73498 0.972083C2.73497 0.972088 2.73497 0.972093 2.73496 0.972098C2.73496 0.972102 2.73496 0.972107 2.73495 0.972112C2.73495 0.972116 2.73494 0.972121 2.73494 0.972126C2.73493 0.972131 2.73493 0.972135 2.73492 0.97214C2.73492 0.972145 2.73491 0.972149 2.73491 0.972154C2.7349 0.972159 2.7349 0.972164 2.73489 0.972168C2.73489 0.972173 2.73488 0.972178 2.73488 0.972183C2.73488 0.972187 2.73487 0.972192 2.73487 0.972197C2.73486 0.972201 2.73486 0.972206 2.73485 0.972211C2.73485 0.972215 2.73484 0.97222 2.73484 0.972225C2.73483 0.97223 2.73483 0.972234 2.73482 0.972239C2.73482 0.972244 2.73481 0.972248 2.73481 0.972253C2.7348 0.972258 2.7348 0.972263 2.73479 0.972267C2.73479 0.972272 2.73479 0.972277 2.73478 0.972282C2.73478 0.972286 2.73477 0.972291 2.73477 0.972296C2.73476 0.9723 2.73476 0.972305 2.73475 0.97231C2.73475 0.972315 2.73474 0.972319 2.73474 0.972324C2.73473 0.972329 2.73473 0.972333 2.73472 0.972338C2.73472 0.972343 2.73471 0.972347 2.73471 0.972352C2.73471 0.972357 2.7347 0.972362 2.7347 0.972366C2.73469 0.972371 2.73469 0.972376 2.73468 0.972381C2.73468 0.972385 2.73467 0.97239 2.73467 0.972395C2.73466 0.972399 2.73466 0.972404 2.73465 0.972409C2.73465 0.972414 2.73464 0.972418 2.73464 0.972423C2.73463 0.972428 2.73463 0.972432 2.73463 0.972437C2.73462 0.972442 2.73462 0.972447 2.73461 0.972451C2.73461 0.972456 2.7346 0.972461 2.7346 0.972465C2.73459 0.97247 2.73459 0.972475 2.73458 0.97248C2.73458 0.972484 2.73457 0.972489 2.73457 0.972494C2.73456 0.972498 2.73456 0.972503 2.73455 0.972508C2.73455 0.972513 2.73455 0.972517 2.73454 0.972522C2.73454 0.972527 2.73453 0.972531 2.73453 0.972536C2.73452 0.972541 2.73452 0.972546 2.73451 0.97255C2.73451 0.972555 2.7345 0.97256 2.7345 0.972564C2.73449 0.972569 2.73449 0.972574 2.73448 0.972579C2.73448 0.972583 2.73447 0.972588 2.73447 0.972593C2.73446 0.972597 2.73446 0.972602 2.73446 0.972607C2.73445 0.972612 2.73445 0.972616 2.73444 0.972621C2.73444 0.972626 2.73443 0.97263 2.73443 0.972635C2.73442 0.97264 2.73442 0.972645 2.73441 0.972649C2.73441 0.972654 2.7344 0.972659 2.7344 0.972663C2.73439 0.972668 2.73439 0.972673 2.73438 0.972678C2.73438 0.972682 2.73438 0.972687 2.73437 0.972692C2.73437 0.972696 2.73436 0.972701 2.73436 0.972706C2.73435 0.972711 2.73435 0.972715 2.73434 0.97272C2.73434 0.972725 2.73433 0.972729 2.73433 0.972734C2.73432 0.972739 2.73432 0.972744 2.73431 0.972748C2.73431 0.972753 2.7343 0.972758 2.7343 0.972762C2.7343 0.972767 2.73429 0.972772 2.73429 0.972777C2.73428 0.972781 2.73428 0.972786 2.73427 0.972791C2.73427 0.972795 2.73426 0.9728 2.73426 0.972805C2.73425 0.97281 2.73425 0.972814 2.73424 0.972819C2.73424 0.972824 2.73423 0.972828 2.73423 0.972833C2.73422 0.972838 2.73422 0.972843 2.73422 0.972847C2.73421 0.972852 2.73421 0.972857 2.7342 0.972861C2.7342 0.972866 2.73419 0.972871 2.73419 0.972876C2.73418 0.97288 2.73418 0.972885 2.73417 0.97289C2.73417 0.972894 2.73416 0.972899 2.73416 0.972904C2.73415 0.972909 2.73415 0.972913 2.73414 0.972918C2.73414 0.972923 2.73413 0.972928 2.73413 0.972932C2.73413 0.972937 2.73412 0.972942 2.73412 0.972946C2.73411 0.972951 2.73411 0.972956 2.7341 0.97296C2.7341 0.972965 2.73409 0.97297 2.73409 0.972975C2.73408 0.972979 2.73408 0.972984 2.73407 0.972989C2.73407 0.972993 2.73406 0.972998 2.73406 0.973003C2.73405 0.973008 2.73405 0.973012 2.73405 0.973017C2.73404 0.973022 2.73404 0.973027 2.73403 0.973031C2.73403 0.973036 2.73402 0.973041 2.73402 0.973045C2.73401 0.97305 2.73401 0.973055 2.734 0.97306C2.734 0.973064 2.73399 0.973069 2.73399 0.973074C2.73398 0.973078 2.73398 0.973083 2.73397 0.973088C2.73397 0.973092 2.73397 0.973097 2.73396 0.973102C2.73396 0.973107 2.73395 0.973111 2.73395 0.973116C2.73394 0.973121 2.73394 0.973126 2.73393 0.97313C2.73393 0.973135 2.73392 0.97314 2.73392 0.973144C2.73391 0.973149 2.73391 0.973154 2.7339 0.973159C2.7339 0.973163 2.73389 0.973168 2.73389 0.973173C2.73388 0.973177 2.73388 0.973182 2.73388 0.973187C2.73387 0.973192 2.73387 0.973196 2.73386 0.973201C2.73386 0.973206 2.73385 0.97321 2.73385 0.973215C2.73384 0.97322 2.73384 0.973225 2.73383 0.973229C2.73383 0.973234 2.73382 0.973239 2.73382 0.973243C2.73381 0.973248 2.73381 0.973253 2.7338 0.973258C2.7338 0.973262 2.7338 0.973267 2.73379 0.973272C2.73379 0.973276 2.73378 0.973281 2.73378 0.973286C2.73377 0.973291 2.73377 0.973295 2.73376 0.9733C2.73376 0.973305 2.73375 0.973309 2.73375 0.973314C2.73374 0.973319 2.73374 0.973324 2.73373 0.973328C2.73373 0.973333 2.73372 0.973338 2.73372 0.973342C2.73372 0.973347 2.73371 0.973352 2.73371 0.973357C2.7337 0.973361 2.7337 0.973366 2.73369 0.973371C2.73369 0.973375 2.73368 0.97338 2.73368 0.973385C2.73367 0.97339 2.73367 0.973394 2.73366 0.973399C2.73366 0.973404 2.73365 0.973408 2.73365 0.973413C2.73364 0.973418 2.73364 0.973423 2.73364 0.973427C2.73363 0.973432 2.73363 0.973437 2.73362 0.973441C2.73362 0.973446 2.73361 0.973451 2.73361 0.973456C2.7336 0.97346 2.7336 0.973465 2.73359 0.97347C2.73359 0.973474 2.73358 0.973479 2.73358 0.973484C2.73357 0.973489 2.73357 0.973493 2.73356 0.973498C2.73356 0.973503 2.73355 0.973507 2.73355 0.973512C2.73355 0.973517 2.73354 0.973522 2.73354 0.973526C2.73353 0.973531 2.73353 0.973536 2.73352 0.97354C2.73352 0.973545 2.73351 0.97355 2.73351 0.973555C2.7335 0.973559 2.7335 0.973564 2.73349 0.973569C2.73349 0.973573 2.73348 0.973578 2.73348 0.973583C2.73347 0.973588 2.73347 0.973592 2.73347 0.973597C2.73346 0.973602 2.73346 0.973606 2.73345 0.973611C2.73345 0.973616 2.73344 0.973621 2.73344 0.973625C2.73343 0.97363 2.73343 0.973635 2.73342 0.973639C2.73342 0.973644 2.73341 0.973649 2.73341 0.973654C2.7334 0.973658 2.7334 0.973663 2.73339 0.973668C2.73339 0.973673 2.73339 0.973677 2.73338 0.973682C2.73338 0.973687 2.73337 0.973691 2.73337 0.973696C2.73336 0.973701 2.73336 0.973705 2.73335 0.97371C2.73335 0.973715 2.73334 0.97372 2.73334 0.973724C2.73333 0.973729 2.73333 0.973734 2.73332 0.973738C2.73332 0.973743 2.73331 0.973748 2.73331 0.973753C2.7333 0.973757 2.7333 0.973762 2.7333 0.973767C2.73329 0.973772 2.73329 0.973776 2.73328 0.973781C2.73328 0.973786 2.73327 0.97379 2.73327 0.973795C2.73326 0.9738 2.73326 0.973805 2.73325 0.973809C2.73325 0.973814 2.73324 0.973819 2.73324 0.973823C2.73323 0.973828 2.73323 0.973833 2.73322 0.973837C2.73322 0.973842 2.73322 0.973847 2.73321 0.973852C2.73321 0.973856 2.7332 0.973861 2.7332 0.973866C2.73319 0.973871 2.73319 0.973875 2.73318 0.97388C2.73318 0.973885 2.73317 0.973889 2.73317 0.973894C2.73316 0.973899 2.73316 0.973904 2.73315 0.973908C2.73315 0.973913 2.73314 0.973918 2.73314 0.973922C2.73314 0.973927 2.73313 0.973932 2.73313 0.973937C2.73312 0.973941 2.73312 0.973946 2.73311 0.973951C2.73311 0.973955 2.7331 0.97396 2.7331 0.973965C2.73309 0.97397 2.73309 0.973974 2.73308 0.973979C2.73308 0.973984 2.73307 0.973988 2.73307 0.973993C2.73306 0.973998 2.73306 0.974003 2.73306 0.974007C2.73305 0.974012 2.73305 0.974017 2.73304 0.974021C2.73304 0.974026 2.73303 0.974031 2.73303 0.974036C2.73302 0.97404 2.73302 0.974045 2.73301 0.97405C2.73301 0.974054 2.733 0.974059 2.733 0.974064C2.73299 0.974069 2.73299 0.974073 2.73298 0.974078C2.73298 0.974083 2.73297 0.974087 2.73297 0.974092C2.73297 0.974097 2.73296 0.974102 2.73296 0.974106C2.73295 0.974111 2.73295 0.974116 2.73294 0.97412C2.73294 0.974125 2.73293 0.97413 2.73293 0.974135C2.73292 0.974139 2.73292 0.974144 2.73291 0.974149C2.73291 0.974153 2.7329 0.974158 2.7329 0.974163C2.73289 0.974168 2.73289 0.974172 2.73289 0.974177C2.73288 0.974182 2.73288 0.974186 2.73287 0.974191C2.73287 0.974196 2.73286 0.974201 2.73286 0.974205C2.73285 0.97421 2.73285 0.974215 2.73284 0.974219C2.73284 0.974224 2.73283 0.974229 2.73283 0.974234C2.73282 0.974238 2.73282 0.974243 2.73281 0.974248C2.73281 0.974252 2.73281 0.974257 2.7328 0.974262C2.7328 0.974267 2.73279 0.974271 2.73279 0.974276C2.73278 0.974281 2.73278 0.974285 2.73277 0.97429C2.73277 0.974295 2.73276 0.9743 2.73276 0.974304C2.73275 0.974309 2.73275 0.974314 2.73274 0.974318C2.73274 0.974323 2.73273 0.974328 2.73273 0.974333C2.73273 0.974337 2.73272 0.974342 2.73272 0.974347C2.73271 0.974351 2.73271 0.974356 2.7327 0.974361C2.7327 0.974366 2.73269 0.97437 2.73269 0.974375C2.73268 0.97438 2.73268 0.974384 2.73267 0.974389C2.73267 0.974394 2.73266 0.974399 2.73266 0.974403C2.73265 0.974408 2.73265 0.974413 2.73264 0.974418C2.73264 0.974422 2.73264 0.974427 2.73263 0.974432C2.73263 0.974436 2.73262 0.974441 2.73262 0.974446C2.73261 0.97445 2.73261 0.974455 2.7326 0.97446C2.7326 0.974465 2.73259 0.974469 2.73259 0.974474C2.73258 0.974479 2.73258 0.974483 2.73257 0.974488C2.73257 0.974493 2.73256 0.974498 2.73256 0.974502C2.73256 0.974507 2.73255 0.974512 2.73255 0.974517C2.73254 0.974521 2.73254 0.974526 2.73253 0.974531C2.73253 0.974535 2.73252 0.97454 2.73252 0.974545C2.73251 0.97455 2.73251 0.974554 2.7325 0.974559C2.7325 0.974564 2.73249 0.974568 2.73249 0.974573C2.73248 0.974578 2.73248 0.974582 2.73248 0.974587C2.73247 0.974592 2.73247 0.974597 2.73246 0.974601C2.73246 0.974606 2.73245 0.974611 2.73245 0.974616C2.73244 0.97462 2.73244 0.974625 2.73243 0.97463C2.73243 0.974634 2.73242 0.974639 2.73242 0.974644C2.73241 0.974649 2.73241 0.974653 2.7324 0.974658C2.7324 0.974663 2.73239 0.974667 2.73239 0.974672C2.73239 0.974677 2.73238 0.974682 2.73238 0.974686C2.73237 0.974691 2.73237 0.974696 2.73236 0.9747C2.73236 0.974705 2.73235 0.97471 2.73235 0.974715C2.73234 0.974719 2.73234 0.974724 2.73233 0.974729C2.73233 0.974733 2.73232 0.974738 2.73232 0.974743C2.73231 0.974748 2.73231 0.974752 2.73231 0.974757C2.7323 0.974762 2.7323 0.974766 2.73229 0.974771C2.73229 0.974776 2.73228 0.974781 2.73228 0.974785C2.73227 0.97479 2.73227 0.974795 2.73226 0.974799C2.73226 0.974804 2.73225 0.974809 2.73225 0.974814C2.73224 0.974818 2.73224 0.974823 2.73223 0.974828C2.73223 0.974832 2.73223 0.974837 2.73222 0.974842C2.73222 0.974847 2.73221 0.974851 2.73221 0.974856C2.7322 0.974861 2.7322 0.974865 2.73219 0.97487C2.73219 0.974875 2.73218 0.97488 2.73218 0.974884C2.73217 0.974889 2.73217 0.974894 2.73216 0.974898C2.73216 0.974903 2.73215 0.974908 2.73215 0.974913C2.73215 0.974917 2.73214 0.974922 2.73214 0.974927C2.73213 0.974931 2.73213 0.974936 2.73212 0.974941C2.73212 0.974946 2.73211 0.97495 2.73211 0.974955C2.7321 0.97496 2.7321 0.974964 2.73209 0.974969C2.73209 0.974974 2.73208 0.974979 2.73208 0.974983C2.73207 0.974988 2.73207 0.974993 2.73206 0.974997C2.73206 0.975002 2.73206 0.975007 2.73205 0.975012C2.73205 0.975016 2.73204 0.975021 2.73204 0.975026C2.73203 0.97503 2.73203 0.975035 2.73202 0.97504C2.73202 0.975045 2.73201 0.975049 2.73201 0.975054C2.732 0.975059 2.732 0.975063 2.73199 0.975068C2.73199 0.975073 2.73198 0.975078 2.73198 0.975082C2.73198 0.975087 2.73197 0.975092 2.73197 0.975096C2.73196 0.975101 2.73196 0.975106 2.73195 0.975111C2.73195 0.975115 2.73194 0.97512 2.73194 0.975125C2.73193 0.975129 2.73193 0.975134 2.73192 0.975139C2.73192 0.975144 2.73191 0.975148 2.73191 0.975153C2.7319 0.975158 2.7319 0.975163 2.7319 0.975167C2.73189 0.975172 2.73189 0.975177 2.73188 0.975181C2.73188 0.975186 2.73187 0.975191 2.73187 0.975195C2.73186 0.9752 2.73186 0.975205 2.73185 0.97521C2.73185 0.975214 2.73184 0.975219 2.73184 0.975224C2.73183 0.975228 2.73183 0.975233 2.73182 0.975238C2.73182 0.975243 2.73181 0.975247 2.73181 0.975252C2.73181 0.975257 2.7318 0.975262 2.7318 0.975266C2.73179 0.975271 2.73179 0.975276 2.73178 0.97528C2.73178 0.975285 2.73177 0.97529 2.73177 0.975295C2.73176 0.975299 2.73176 0.975304 2.73175 0.975309C2.73175 0.975313 2.73174 0.975318 2.73174 0.975323C2.73173 0.975327 2.73173 0.975332 2.73173 0.975337C2.73172 0.975342 2.73172 0.975346 2.73171 0.975351C2.73171 0.975356 2.7317 0.975361 2.7317 0.975365C2.73169 0.97537 2.73169 0.975375 2.73168 0.975379C2.73168 0.975384 2.73167 0.975389 2.73167 0.975394C2.73166 0.975398 2.73166 0.975403 2.73165 0.975408C2.73165 0.975412 2.73165 0.975417 2.73164 0.975422C2.73164 0.975427 2.73163 0.975431 2.73163 0.975436C2.73162 0.975441 2.73162 0.975445 2.73161 0.97545C2.73161 0.975455 2.7316 0.97546 2.7316 0.975464C2.73159 0.975469 2.73159 0.975474 2.73158 0.975478C2.73158 0.975483 2.73157 0.975488 2.73157 0.975493C2.73157 0.975497 2.73156 0.975502 2.73156 0.975507C2.73155 0.975511 2.73155 0.975516 2.73154 0.975521C2.73154 0.975526 2.73153 0.97553 2.73153 0.975535C2.73152 0.97554 2.73152 0.975544 2.73151 0.975549C2.73151 0.975554 2.7315 0.975559 2.7315 0.975563C2.73149 0.975568 2.73149 0.975573 2.73148 0.975577C2.73148 0.975582 2.73148 0.975587 2.73147 0.975592C2.73147 0.975596 2.73146 0.975601 2.73146 0.975606C2.73145 0.97561 2.73145 0.975615 2.73144 0.97562C2.73144 0.975625 2.73143 0.975629 2.73143 0.975634C2.73142 0.975639 2.73142 0.975643 2.73141 0.975648C2.73141 0.975653 2.7314 0.975658 2.7314 0.975662C2.7314 0.975667 2.73139 0.975672 2.73139 0.975676C2.73138 0.975681 2.73138 0.975686 2.73137 0.975691C2.73137 0.975695 2.73136 0.9757 2.73136 0.975705C2.73135 0.975709 2.73135 0.975714 2.73134 0.975719C2.73134 0.975724 2.73133 0.975728 2.73133 0.975733C2.73132 0.975738 2.73132 0.975742 2.73132 0.975747C2.73131 0.975752 2.73131 0.975757 2.7313 0.975761C2.7313 0.975766 2.73129 0.975771 2.73129 0.975775C2.73128 0.97578 2.73128 0.975785 2.73127 0.97579C2.73127 0.975794 2.73126 0.975799 2.73126 0.975804C2.73125 0.975808 2.73125 0.975813 2.73124 0.975818C2.73124 0.975823 2.73124 0.975827 2.73123 0.975832C2.73123 0.975837 2.73122 0.975841 2.73122 0.975846C2.73121 0.975851 2.73121 0.975856 2.7312 0.97586C2.7312 0.975865 2.73119 0.97587 2.73119 0.975874C2.73118 0.975879 2.73118 0.975884 2.73117 0.975889C2.73117 0.975893 2.73116 0.975898 2.73116 0.975903C2.73115 0.975908 2.73115 0.975912 2.73115 0.975917C2.73114 0.975922 2.73114 0.975926 2.73113 0.975931C2.73113 0.975936 2.73112 0.97594 2.73112 0.975945C2.73111 0.97595 2.73111 0.975955 2.7311 0.975959C2.7311 0.975964 2.73109 0.975969 2.73109 0.975973C2.73108 0.975978 2.73108 0.975983 2.73107 0.975988C2.73107 0.975992 2.73107 0.975997 2.73106 0.976002C2.73106 0.976007 2.73105 0.976011 2.73105 0.976016C2.73104 0.976021 2.73104 0.976025 2.73103 0.97603C2.73103 0.976035 2.73102 0.97604 2.73102 0.976044C2.73101 0.976049 2.73101 0.976054 2.731 0.976058C2.731 0.976063 2.73099 0.976068 2.73099 0.976072C2.73099 0.976077 2.73098 0.976082 2.73098 0.976087C2.73097 0.976091 2.73097 0.976096 2.73096 0.976101C2.73096 0.976106 2.73095 0.97611 2.73095 0.976115C2.73094 0.97612 2.73094 0.976124 2.73093 0.976129C2.73093 0.976134 2.73092 0.976139 2.73092 0.976143C2.73091 0.976148 2.73091 0.976153 2.7309 0.976157C2.7309 0.976162 2.7309 0.976167 2.73089 0.976172C2.73089 0.976176 2.73088 0.976181 2.73088 0.976186C2.73087 0.97619 2.73087 0.976195 2.73086 0.9762C2.73086 0.976205 2.73085 0.976209 2.73085 0.976214C2.73084 0.976219 2.73084 0.976223 2.73083 0.976228C2.73083 0.976233 2.73082 0.976238 2.73082 0.976242C2.73082 0.976247 2.73081 0.976252 2.73081 0.976256C2.7308 0.976261 2.7308 0.976266 2.73079 0.976271C2.73079 0.976275 2.73078 0.97628 2.73078 0.976285C2.73077 0.976289 2.73077 0.976294 2.73076 0.976299C2.73076 0.976304 2.73075 0.976308 2.73075 0.976313C2.73074 0.976318 2.73074 0.976322 2.73074 0.976327C2.73073 0.976332 2.73073 0.976337 2.73072 0.976341C2.73072 0.976346 2.73071 0.976351 2.73071 0.976355C2.7307 0.97636 2.7307 0.976365 2.73069 0.97637C2.73069 0.976374 2.73068 0.976379 2.73068 0.976384C2.73067 0.976388 2.73067 0.976393 2.73066 0.976398C2.73066 0.976403 2.73066 0.976407 2.73065 0.976412C2.73065 0.976417 2.73064 0.976421 2.73064 0.976426C2.73063 0.976431 2.73063 0.976436 2.73062 0.97644C2.73062 0.976445 2.73061 0.97645 2.73061 0.976454C2.7306 0.976459 2.7306 0.976464 2.73059 0.976469C2.73059 0.976473 2.73058 0.976478 2.73058 0.976483C2.73057 0.976487 2.73057 0.976492 2.73057 0.976497C2.73056 0.976502 2.73056 0.976506 2.73055 0.976511C2.73055 0.976516 2.73054 0.97652 2.73054 0.976525C2.73053 0.97653 2.73053 0.976535 2.73052 0.976539C2.73052 0.976544 2.73051 0.976549 2.73051 0.976553C2.7305 0.976558 2.7305 0.976563 2.73049 0.976568C2.73049 0.976572 2.73049 0.976577 2.73048 0.976582C2.73048 0.976586 2.73047 0.976591 2.73047 0.976596C2.73046 0.976601 2.73046 0.976605 2.73045 0.97661C2.73045 0.976615 2.73044 0.976619 2.73044 0.976624C2.73043 0.976629 2.73043 0.976634 2.73042 0.976638C2.73042 0.976643 2.73041 0.976648 2.73041 0.976652C2.73041 0.976657 2.7304 0.976662 2.7304 0.976667C2.73039 0.976671 2.73039 0.976676 2.73038 0.976681C2.73038 0.976685 2.73037 0.97669 2.73037 0.976695C2.73036 0.9767 2.73036 0.976704 2.73035 0.976709C2.73035 0.976714 2.73034 0.976718 2.73034 0.976723C2.73033 0.976728 2.73033 0.976733 2.73032 0.976737C2.73032 0.976742 2.73032 0.976747 2.73031 0.976752C2.73031 0.976756 2.7303 0.976761 2.7303 0.976766C2.73029 0.97677 2.73029 0.976775 2.73028 0.97678C2.73028 0.976784 2.73027 0.976789 2.73027 0.976794C2.73026 0.976799 2.73026 0.976803 2.73025 0.976808C2.73025 0.976813 2.73024 0.976817 2.73024 0.976822C2.73024 0.976827 2.73023 0.976832 2.73023 0.976836C2.73022 0.976841 2.73022 0.976846 2.73021 0.976851C2.73021 0.976855 2.7302 0.97686 2.7302 0.976865C2.73019 0.976869 2.73019 0.976874 2.73018 0.976879C2.73018 0.976884 2.73017 0.976888 2.73017 0.976893C2.73016 0.976898 2.73016 0.976902 2.73016 0.976907C2.73015 0.976912 2.73015 0.976916 2.73014 0.976921C2.73014 0.976926 2.73013 0.976931 2.73013 0.976935C2.73012 0.97694 2.73012 0.976945 2.73011 0.97695C2.73011 0.976954 2.7301 0.976959 2.7301 0.976964C2.73009 0.976968 2.73009 0.976973 2.73008 0.976978C2.73008 0.976983 2.73008 0.976987 2.73007 0.976992C2.73007 0.976997 2.73006 0.977001 2.73006 0.977006C2.73005 0.977011 2.73005 0.977016 2.73004 0.97702C2.73004 0.977025 2.73003 0.97703 2.73003 0.977034C2.73002 0.977039 2.73002 0.977044 2.73001 0.977049C2.73001 0.977053 2.73 0.977058 2.73 0.977063C2.72999 0.977067 2.72999 0.977072 2.72999 0.977077C2.72998 0.977082 2.72998 0.977086 2.72997 0.977091C2.72997 0.977096 2.72996 0.9771 2.72996 0.977105C2.72995 0.97711 2.72995 0.977115 2.72994 0.977119C2.72994 0.977124 2.72993 0.977129 2.72993 0.977133C2.72992 0.977138 2.72992 0.977143 2.72991 0.977148C2.72991 0.977152 2.72991 0.977157 2.7299 0.977162C2.7299 0.977166 2.72989 0.977171 2.72989 0.977176C2.72988 0.977181 2.72988 0.977185 2.72987 0.97719C2.72987 0.977195 2.72986 0.977199 2.72986 0.977204C2.72985 0.977209 2.72985 0.977214 2.72984 0.977218C2.72984 0.977223 2.72983 0.977228 2.72983 0.977232C2.72983 0.977237 2.72982 0.977242 2.72982 0.977247C2.72981 0.977251 2.72981 0.977256 2.7298 0.977261C2.7298 0.977265 2.72979 0.97727 2.72979 0.977275C2.72978 0.97728 2.72978 0.977284 2.72977 0.977289C2.72977 0.977294 2.72976 0.977298 2.72976 0.977303C2.72975 0.977308 2.72975 0.977313 2.72975 0.977317C2.72974 0.977322 2.72974 0.977327 2.72973 0.977331C2.72973 0.977336 2.72972 0.977341 2.72972 0.977346C2.72971 0.97735 2.72971 0.977355 2.7297 0.97736C2.7297 0.977364 2.72969 0.977369 2.72969 0.977374C2.72968 0.977379 2.72968 0.977383 2.72967 0.977388C2.72967 0.977393 2.72966 0.977397 2.72966 0.977402C2.72966 0.977407 2.72965 0.977412 2.72965 0.977416C2.72964 0.977421 2.72964 0.977426 2.72963 0.97743C2.72963 0.977435 2.72962 0.97744 2.72962 0.977445C2.72961 0.977449 2.72961 0.977454 2.7296 0.977459C2.7296 0.977463 2.72959 0.977468 2.72959 0.977473C2.72958 0.977478 2.72958 0.977482 2.72958 0.977487C2.72957 0.977492 2.72957 0.977497 2.72956 0.977501C2.72956 0.977506 2.72955 0.977511 2.72955 0.977515C2.72954 0.97752 2.72954 0.977525 2.72953 0.977529C2.72953 0.977534 2.72952 0.977539 2.72952 0.977544C2.72951 0.977548 2.72951 0.977553 2.7295 0.977558C2.7295 0.977562 2.7295 0.977567 2.72949 0.977572C2.72949 0.977577 2.72948 0.977581 2.72948 0.977586C2.72947 0.977591 2.72947 0.977596 2.72946 0.9776C2.72946 0.977605 2.72945 0.97761 2.72945 0.977614C2.72944 0.977619 2.72944 0.977624 2.72943 0.977629C2.72943 0.977633 2.72942 0.977638 2.72942 0.977643C2.72941 0.977647 2.72941 0.977652 2.72941 0.977657C2.7294 0.977661 2.7294 0.977666 2.72939 0.977671C2.72939 0.977676 2.72938 0.97768 2.72938 0.977685C2.72937 0.97769 2.72937 0.977695 2.72936 0.977699C2.72936 0.977704 2.72935 0.977709 2.72935 0.977713C2.72934 0.977718 2.72934 0.977723 2.72933 0.977728C2.72933 0.977732 2.72933 0.977737 2.72932 0.977742C2.72932 0.977746 2.72931 0.977751 2.72931 0.977756C2.7293 0.977761 2.7293 0.977765 2.72929 0.97777C2.72929 0.977775 2.72928 0.977779 2.72928 0.977784C2.72927 0.977789 2.72927 0.977794 2.72926 0.977798C2.72926 0.977803 2.72925 0.977808 2.72925 0.977812C2.72925 0.977817 2.72924 0.977822 2.72924 0.977827C2.72923 0.977831 2.72923 0.977836 2.72922 0.977841C2.72922 0.977845 2.72921 0.97785 2.72921 0.977855C2.7292 0.97786 2.7292 0.977864 2.72919 0.977869C2.72919 0.977874 2.72918 0.977878 2.72918 0.977883C2.72917 0.977888 2.72917 0.977893 2.72917 0.977897C2.72916 0.977902 2.72916 0.977907 2.72915 0.977911C2.72915 0.977916 2.72914 0.977921 2.72914 0.977926C2.72913 0.97793 2.72913 0.977935 2.72912 0.97794C2.72912 0.977944 2.72911 0.977949 2.72911 0.977954C2.7291 0.977959 2.7291 0.977963 2.72909 0.977968C2.72909 0.977973 2.72908 0.977977 2.72908 0.977982C2.72908 0.977987 2.72907 0.977992 2.72907 0.977996C2.72906 0.978001 2.72906 0.978006 2.72905 0.97801C2.72905 0.978015 2.72904 0.97802 2.72904 0.978025C2.72903 0.978029 2.72903 0.978034 2.72902 0.978039C2.72902 0.978043 2.72901 0.978048 2.72901 0.978053C2.729 0.978058 2.729 0.978062 2.729 0.978067C2.72899 0.978072 2.72899 0.978076 2.72898 0.978081C2.72898 0.978086 2.72897 0.978091 2.72897 0.978095C2.72896 0.9781 2.72896 0.978105 2.72895 0.978109C2.72895 0.978114 2.72894 0.978119 2.72894 0.978124C2.72893 0.978128 2.72893 0.978133 2.72892 0.978138C2.72892 0.978142 2.72892 0.978147 2.72891 0.978152C2.72891 0.978157 2.7289 0.978161 2.7289 0.978166C2.72889 0.978171 2.72889 0.978175 2.72888 0.97818C2.72888 0.978185 2.72887 0.97819 2.72887 0.978194C2.72886 0.978199 2.72886 0.978204 2.72885 0.978208C2.72885 0.978213 2.72884 0.978218 2.72884 0.978223C2.72883 0.978227 2.72883 0.978232 2.72883 0.978237C2.72882 0.978242 2.72882 0.978246 2.72881 0.978251C2.72881 0.978256 2.7288 0.97826 2.7288 0.978265C2.72879 0.97827 2.72879 0.978274 2.72878 0.978279C2.72878 0.978284 2.72877 0.978289 2.72877 0.978293C2.72876 0.978298 2.72876 0.978303 2.72875 0.978307C2.72875 0.978312 2.72875 0.978317 2.72874 0.978322C2.72874 0.978326 2.72873 0.978331 2.72873 0.978336C2.72872 0.978341 2.72872 0.978345 2.72871 0.97835C2.72871 0.978355 2.7287 0.978359 2.7287 0.978364C2.72869 0.978369 2.72869 0.978374 2.72868 0.978378L4.1429 2.39259C4.1429 2.39259 4.14291 2.39258 4.14291 2.39258C4.14292 2.39257 4.14292 2.39257 4.14293 2.39256C4.14293 2.39256 4.14294 2.39255 4.14294 2.39255C4.14295 2.39254 4.14295 2.39254 4.14295 2.39253C4.14296 2.39253 4.14296 2.39253 4.14297 2.39252C4.14297 2.39252 4.14298 2.39251 4.14298 2.39251C4.14299 2.3925 4.14299 2.3925 4.143 2.39249C4.143 2.39249 4.14301 2.39248 4.14301 2.39248C4.14302 2.39247 4.14302 2.39247 4.14303 2.39246C4.14303 2.39246 4.14303 2.39245 4.14304 2.39245C4.14304 2.39245 4.14305 2.39244 4.14305 2.39244C4.14306 2.39243 4.14306 2.39243 4.14307 2.39242C4.14307 2.39242 4.14308 2.39241 4.14308 2.39241C4.14309 2.3924 4.14309 2.3924 4.1431 2.39239C4.1431 2.39239 4.14311 2.39238 4.14311 2.39238C4.14311 2.39237 4.14312 2.39237 4.14312 2.39237C4.14313 2.39236 4.14313 2.39236 4.14314 2.39235C4.14314 2.39235 4.14315 2.39234 4.14315 2.39234C4.14316 2.39233 4.14316 2.39233 4.14317 2.39232C4.14317 2.39232 4.14318 2.39231 4.14318 2.39231C4.14319 2.3923 4.14319 2.3923 4.14319 2.39229C4.1432 2.39229 4.1432 2.39229 4.14321 2.39228C4.14321 2.39228 4.14322 2.39227 4.14322 2.39227C4.14323 2.39226 4.14323 2.39226 4.14324 2.39225C4.14324 2.39225 4.14325 2.39224 4.14325 2.39224C4.14326 2.39223 4.14326 2.39223 4.14327 2.39222C4.14327 2.39222 4.14328 2.39221 4.14328 2.39221C4.14328 2.3922 4.14329 2.3922 4.14329 2.3922C4.1433 2.39219 4.1433 2.39219 4.14331 2.39218C4.14331 2.39218 4.14332 2.39217 4.14332 2.39217C4.14333 2.39216 4.14333 2.39216 4.14334 2.39215C4.14334 2.39215 4.14335 2.39214 4.14335 2.39214C4.14336 2.39213 4.14336 2.39213 4.14336 2.39212C4.14337 2.39212 4.14337 2.39212 4.14338 2.39211C4.14338 2.39211 4.14339 2.3921 4.14339 2.3921C4.1434 2.39209 4.1434 2.39209 4.14341 2.39208C4.14341 2.39208 4.14342 2.39207 4.14342 2.39207C4.14343 2.39206 4.14343 2.39206 4.14344 2.39205C4.14344 2.39205 4.14344 2.39204 4.14345 2.39204C4.14345 2.39204 4.14346 2.39203 4.14346 2.39203C4.14347 2.39202 4.14347 2.39202 4.14348 2.39201C4.14348 2.39201 4.14349 2.392 4.14349 2.392C4.1435 2.39199 4.1435 2.39199 4.14351 2.39198C4.14351 2.39198 4.14352 2.39197 4.14352 2.39197C4.14353 2.39196 4.14353 2.39196 4.14353 2.39195C4.14354 2.39195 4.14354 2.39195 4.14355 2.39194C4.14355 2.39194 4.14356 2.39193 4.14356 2.39193C4.14357 2.39192 4.14357 2.39192 4.14358 2.39191C4.14358 2.39191 4.14359 2.3919 4.14359 2.3919C4.1436 2.39189 4.1436 2.39189 4.14361 2.39188C4.14361 2.39188 4.14361 2.39187 4.14362 2.39187C4.14362 2.39187 4.14363 2.39186 4.14363 2.39186C4.14364 2.39185 4.14364 2.39185 4.14365 2.39184C4.14365 2.39184 4.14366 2.39183 4.14366 2.39183C4.14367 2.39182 4.14367 2.39182 4.14368 2.39181C4.14368 2.39181 4.14369 2.3918 4.14369 2.3918C4.14369 2.39179 4.1437 2.39179 4.1437 2.39179C4.14371 2.39178 4.14371 2.39178 4.14372 2.39177C4.14372 2.39177 4.14373 2.39176 4.14373 2.39176C4.14374 2.39175 4.14374 2.39175 4.14375 2.39174C4.14375 2.39174 4.14376 2.39173 4.14376 2.39173C4.14377 2.39172 4.14377 2.39172 4.14377 2.39171C4.14378 2.39171 4.14378 2.39171 4.14379 2.3917C4.14379 2.3917 4.1438 2.39169 4.1438 2.39169C4.14381 2.39168 4.14381 2.39168 4.14382 2.39167C4.14382 2.39167 4.14383 2.39166 4.14383 2.39166C4.14384 2.39165 4.14384 2.39165 4.14385 2.39164C4.14385 2.39164 4.14386 2.39163 4.14386 2.39163C4.14386 2.39162 4.14387 2.39162 4.14387 2.39162C4.14388 2.39161 4.14388 2.39161 4.14389 2.3916C4.14389 2.3916 4.1439 2.39159 4.1439 2.39159C4.14391 2.39158 4.14391 2.39158 4.14392 2.39157C4.14392 2.39157 4.14393 2.39156 4.14393 2.39156C4.14394 2.39155 4.14394 2.39155 4.14394 2.39154C4.14395 2.39154 4.14395 2.39154 4.14396 2.39153C4.14396 2.39153 4.14397 2.39152 4.14397 2.39152C4.14398 2.39151 4.14398 2.39151 4.14399 2.3915C4.14399 2.3915 4.144 2.39149 4.144 2.39149C4.14401 2.39148 4.14401 2.39148 4.14402 2.39147C4.14402 2.39147 4.14402 2.39146 4.14403 2.39146C4.14403 2.39146 4.14404 2.39145 4.14404 2.39145C4.14405 2.39144 4.14405 2.39144 4.14406 2.39143C4.14406 2.39143 4.14407 2.39142 4.14407 2.39142C4.14408 2.39141 4.14408 2.39141 4.14409 2.3914C4.14409 2.3914 4.1441 2.39139 4.1441 2.39139C4.14411 2.39138 4.14411 2.39138 4.14411 2.39138C4.14412 2.39137 4.14412 2.39137 4.14413 2.39136C4.14413 2.39136 4.14414 2.39135 4.14414 2.39135C4.14415 2.39134 4.14415 2.39134 4.14416 2.39133C4.14416 2.39133 4.14417 2.39132 4.14417 2.39132C4.14418 2.39131 4.14418 2.39131 4.14419 2.3913C4.14419 2.3913 4.14419 2.39129 4.1442 2.39129C4.1442 2.39129 4.14421 2.39128 4.14421 2.39128C4.14422 2.39127 4.14422 2.39127 4.14423 2.39126C4.14423 2.39126 4.14424 2.39125 4.14424 2.39125C4.14425 2.39124 4.14425 2.39124 4.14426 2.39123C4.14426 2.39123 4.14427 2.39122 4.14427 2.39122C4.14427 2.39121 4.14428 2.39121 4.14428 2.39121C4.14429 2.3912 4.14429 2.3912 4.1443 2.39119C4.1443 2.39119 4.14431 2.39118 4.14431 2.39118C4.14432 2.39117 4.14432 2.39117 4.14433 2.39116C4.14433 2.39116 4.14434 2.39115 4.14434 2.39115C4.14435 2.39114 4.14435 2.39114 4.14435 2.39113C4.14436 2.39113 4.14436 2.39113 4.14437 2.39112C4.14437 2.39112 4.14438 2.39111 4.14438 2.39111C4.14439 2.3911 4.14439 2.3911 4.1444 2.39109C4.1444 2.39109 4.14441 2.39108 4.14441 2.39108C4.14442 2.39107 4.14442 2.39107 4.14443 2.39106C4.14443 2.39106 4.14444 2.39105 4.14444 2.39105C4.14444 2.39104 4.14445 2.39104 4.14445 2.39104C4.14446 2.39103 4.14446 2.39103 4.14447 2.39102C4.14447 2.39102 4.14448 2.39101 4.14448 2.39101C4.14449 2.391 4.14449 2.391 4.1445 2.39099C4.1445 2.39099 4.14451 2.39098 4.14451 2.39098C4.14452 2.39097 4.14452 2.39097 4.14452 2.39096C4.14453 2.39096 4.14453 2.39096 4.14454 2.39095C4.14454 2.39095 4.14455 2.39094 4.14455 2.39094C4.14456 2.39093 4.14456 2.39093 4.14457 2.39092C4.14457 2.39092 4.14458 2.39091 4.14458 2.39091C4.14459 2.3909 4.14459 2.3909 4.1446 2.39089C4.1446 2.39089 4.1446 2.39088 4.14461 2.39088C4.14461 2.39088 4.14462 2.39087 4.14462 2.39087C4.14463 2.39086 4.14463 2.39086 4.14464 2.39085C4.14464 2.39085 4.14465 2.39084 4.14465 2.39084C4.14466 2.39083 4.14466 2.39083 4.14467 2.39082C4.14467 2.39082 4.14468 2.39081 4.14468 2.39081C4.14468 2.3908 4.14469 2.3908 4.14469 2.39079C4.1447 2.39079 4.1447 2.39079 4.14471 2.39078C4.14471 2.39078 4.14472 2.39077 4.14472 2.39077C4.14473 2.39076 4.14473 2.39076 4.14474 2.39075C4.14474 2.39075 4.14475 2.39074 4.14475 2.39074C4.14476 2.39073 4.14476 2.39073 4.14477 2.39072C4.14477 2.39072 4.14477 2.39071 4.14478 2.39071C4.14478 2.39071 4.14479 2.3907 4.14479 2.3907C4.1448 2.39069 4.1448 2.39069 4.14481 2.39068C4.14481 2.39068 4.14482 2.39067 4.14482 2.39067C4.14483 2.39066 4.14483 2.39066 4.14484 2.39065C4.14484 2.39065 4.14485 2.39064 4.14485 2.39064C4.14485 2.39063 4.14486 2.39063 4.14486 2.39063C4.14487 2.39062 4.14487 2.39062 4.14488 2.39061C4.14488 2.39061 4.14489 2.3906 4.14489 2.3906C4.1449 2.39059 4.1449 2.39059 4.14491 2.39058C4.14491 2.39058 4.14492 2.39057 4.14492 2.39057C4.14493 2.39056 4.14493 2.39056 4.14493 2.39055C4.14494 2.39055 4.14494 2.39055 4.14495 2.39054C4.14495 2.39054 4.14496 2.39053 4.14496 2.39053C4.14497 2.39052 4.14497 2.39052 4.14498 2.39051C4.14498 2.39051 4.14499 2.3905 4.14499 2.3905C4.145 2.39049 4.145 2.39049 4.14501 2.39048C4.14501 2.39048 4.14502 2.39047 4.14502 2.39047C4.14502 2.39047 4.14503 2.39046 4.14503 2.39046C4.14504 2.39045 4.14504 2.39045 4.14505 2.39044C4.14505 2.39044 4.14506 2.39043 4.14506 2.39043C4.14507 2.39042 4.14507 2.39042 4.14508 2.39041C4.14508 2.39041 4.14509 2.3904 4.14509 2.3904C4.1451 2.39039 4.1451 2.39039 4.1451 2.39038C4.14511 2.39038 4.14511 2.39038 4.14512 2.39037C4.14512 2.39037 4.14513 2.39036 4.14513 2.39036C4.14514 2.39035 4.14514 2.39035 4.14515 2.39034C4.14515 2.39034 4.14516 2.39033 4.14516 2.39033C4.14517 2.39032 4.14517 2.39032 4.14518 2.39031C4.14518 2.39031 4.14518 2.3903 4.14519 2.3903C4.14519 2.3903 4.1452 2.39029 4.1452 2.39029C4.14521 2.39028 4.14521 2.39028 4.14522 2.39027C4.14522 2.39027 4.14523 2.39026 4.14523 2.39026C4.14524 2.39025 4.14524 2.39025 4.14525 2.39024C4.14525 2.39024 4.14526 2.39023 4.14526 2.39023C4.14526 2.39022 4.14527 2.39022 4.14527 2.39022C4.14528 2.39021 4.14528 2.39021 4.14529 2.3902C4.14529 2.3902 4.1453 2.39019 4.1453 2.39019C4.14531 2.39018 4.14531 2.39018 4.14532 2.39017C4.14532 2.39017 4.14533 2.39016 4.14533 2.39016C4.14534 2.39015 4.14534 2.39015 4.14535 2.39014C4.14535 2.39014 4.14535 2.39013 4.14536 2.39013C4.14536 2.39013 4.14537 2.39012 4.14537 2.39012C4.14538 2.39011 4.14538 2.39011 4.14539 2.3901C4.14539 2.3901 4.1454 2.39009 4.1454 2.39009C4.14541 2.39008 4.14541 2.39008 4.14542 2.39007C4.14542 2.39007 4.14543 2.39006 4.14543 2.39006C4.14543 2.39005 4.14544 2.39005 4.14544 2.39005C4.14545 2.39004 4.14545 2.39004 4.14546 2.39003C4.14546 2.39003 4.14547 2.39002 4.14547 2.39002C4.14548 2.39001 4.14548 2.39001 4.14549 2.39C4.14549 2.39 4.1455 2.38999 4.1455 2.38999C4.14551 2.38998 4.14551 2.38998 4.14551 2.38997C4.14552 2.38997 4.14552 2.38997 4.14553 2.38996C4.14553 2.38996 4.14554 2.38995 4.14554 2.38995C4.14555 2.38994 4.14555 2.38994 4.14556 2.38993C4.14556 2.38993 4.14557 2.38992 4.14557 2.38992C4.14558 2.38991 4.14558 2.38991 4.14559 2.3899C4.14559 2.3899 4.1456 2.38989 4.1456 2.38989C4.1456 2.38988 4.14561 2.38988 4.14561 2.38988C4.14562 2.38987 4.14562 2.38987 4.14563 2.38986C4.14563 2.38986 4.14564 2.38985 4.14564 2.38985C4.14565 2.38984 4.14565 2.38984 4.14566 2.38983C4.14566 2.38983 4.14567 2.38982 4.14567 2.38982C4.14568 2.38981 4.14568 2.38981 4.14568 2.3898C4.14569 2.3898 4.14569 2.3898 4.1457 2.38979C4.1457 2.38979 4.14571 2.38978 4.14571 2.38978C4.14572 2.38977 4.14572 2.38977 4.14573 2.38976C4.14573 2.38976 4.14574 2.38975 4.14574 2.38975C4.14575 2.38974 4.14575 2.38974 4.14576 2.38973C4.14576 2.38973 4.14576 2.38972 4.14577 2.38972C4.14577 2.38972 4.14578 2.38971 4.14578 2.38971C4.14579 2.3897 4.14579 2.3897 4.1458 2.38969C4.1458 2.38969 4.14581 2.38968 4.14581 2.38968C4.14582 2.38967 4.14582 2.38967 4.14583 2.38966C4.14583 2.38966 4.14584 2.38965 4.14584 2.38965C4.14584 2.38964 4.14585 2.38964 4.14585 2.38964C4.14586 2.38963 4.14586 2.38963 4.14587 2.38962C4.14587 2.38962 4.14588 2.38961 4.14588 2.38961C4.14589 2.3896 4.14589 2.3896 4.1459 2.38959C4.1459 2.38959 4.14591 2.38958 4.14591 2.38958C4.14592 2.38957 4.14592 2.38957 4.14593 2.38956C4.14593 2.38956 4.14593 2.38955 4.14594 2.38955C4.14594 2.38955 4.14595 2.38954 4.14595 2.38954C4.14596 2.38953 4.14596 2.38953 4.14597 2.38952C4.14597 2.38952 4.14598 2.38951 4.14598 2.38951C4.14599 2.3895 4.14599 2.3895 4.146 2.38949C4.146 2.38949 4.14601 2.38948 4.14601 2.38948C4.14601 2.38947 4.14602 2.38947 4.14602 2.38947C4.14603 2.38946 4.14603 2.38946 4.14604 2.38945C4.14604 2.38945 4.14605 2.38944 4.14605 2.38944C4.14606 2.38943 4.14606 2.38943 4.14607 2.38942C4.14607 2.38942 4.14608 2.38941 4.14608 2.38941C4.14609 2.3894 4.14609 2.3894 4.14609 2.38939C4.1461 2.38939 4.1461 2.38939 4.14611 2.38938C4.14611 2.38938 4.14612 2.38937 4.14612 2.38937C4.14613 2.38936 4.14613 2.38936 4.14614 2.38935C4.14614 2.38935 4.14615 2.38934 4.14615 2.38934C4.14616 2.38933 4.14616 2.38933 4.14617 2.38932C4.14617 2.38932 4.14617 2.38931 4.14618 2.38931C4.14618 2.38931 4.14619 2.3893 4.14619 2.3893C4.1462 2.38929 4.1462 2.38929 4.14621 2.38928C4.14621 2.38928 4.14622 2.38927 4.14622 2.38927C4.14623 2.38926 4.14623 2.38926 4.14624 2.38925C4.14624 2.38925 4.14625 2.38924 4.14625 2.38924C4.14626 2.38923 4.14626 2.38923 4.14626 2.38923C4.14627 2.38922 4.14627 2.38922 4.14628 2.38921C4.14628 2.38921 4.14629 2.3892 4.14629 2.3892C4.1463 2.38919 4.1463 2.38919 4.14631 2.38918C4.14631 2.38918 4.14632 2.38917 4.14632 2.38917C4.14633 2.38916 4.14633 2.38916 4.14634 2.38915C4.14634 2.38915 4.14634 2.38914 4.14635 2.38914C4.14635 2.38914 4.14636 2.38913 4.14636 2.38913C4.14637 2.38912 4.14637 2.38912 4.14638 2.38911C4.14638 2.38911 4.14639 2.3891 4.14639 2.3891C4.1464 2.38909 4.1464 2.38909 4.14641 2.38908C4.14641 2.38908 4.14642 2.38907 4.14642 2.38907C4.14642 2.38906 4.14643 2.38906 4.14643 2.38906C4.14644 2.38905 4.14644 2.38905 4.14645 2.38904C4.14645 2.38904 4.14646 2.38903 4.14646 2.38903C4.14647 2.38902 4.14647 2.38902 4.14648 2.38901C4.14648 2.38901 4.14649 2.389 4.14649 2.389C4.1465 2.38899 4.1465 2.38899 4.1465 2.38898C4.14651 2.38898 4.14651 2.38897 4.14652 2.38897C4.14652 2.38897 4.14653 2.38896 4.14653 2.38896C4.14654 2.38895 4.14654 2.38895 4.14655 2.38894C4.14655 2.38894 4.14656 2.38893 4.14656 2.38893C4.14657 2.38892 4.14657 2.38892 4.14658 2.38891C4.14658 2.38891 4.14659 2.3889 4.14659 2.3889C4.14659 2.38889 4.1466 2.38889 4.1466 2.38889C4.14661 2.38888 4.14661 2.38888 4.14662 2.38887C4.14662 2.38887 4.14663 2.38886 4.14663 2.38886C4.14664 2.38885 4.14664 2.38885 4.14665 2.38884C4.14665 2.38884 4.14666 2.38883 4.14666 2.38883C4.14667 2.38882 4.14667 2.38882 4.14667 2.38881C4.14668 2.38881 4.14668 2.38881 4.14669 2.3888C4.14669 2.3888 4.1467 2.38879 4.1467 2.38879C4.14671 2.38878 4.14671 2.38878 4.14672 2.38877C4.14672 2.38877 4.14673 2.38876 4.14673 2.38876C4.14674 2.38875 4.14674 2.38875 4.14675 2.38874C4.14675 2.38874 4.14675 2.38873 4.14676 2.38873C4.14676 2.38873 4.14677 2.38872 4.14677 2.38872C4.14678 2.38871 4.14678 2.38871 4.14679 2.3887C4.14679 2.3887 4.1468 2.38869 4.1468 2.38869C4.14681 2.38868 4.14681 2.38868 4.14682 2.38867C4.14682 2.38867 4.14683 2.38866 4.14683 2.38866C4.14684 2.38865 4.14684 2.38865 4.14684 2.38864C4.14685 2.38864 4.14685 2.38864 4.14686 2.38863C4.14686 2.38863 4.14687 2.38862 4.14687 2.38862C4.14688 2.38861 4.14688 2.38861 4.14689 2.3886C4.14689 2.3886 4.1469 2.38859 4.1469 2.38859C4.14691 2.38858 4.14691 2.38858 4.14692 2.38857C4.14692 2.38857 4.14692 2.38856 4.14693 2.38856C4.14693 2.38856 4.14694 2.38855 4.14694 2.38855C4.14695 2.38854 4.14695 2.38854 4.14696 2.38853C4.14696 2.38853 4.14697 2.38852 4.14697 2.38852C4.14698 2.38851 4.14698 2.38851 4.14699 2.3885C4.14699 2.3885 4.147 2.38849 4.147 2.38849C4.147 2.38848 4.14701 2.38848 4.14701 2.38848C4.14702 2.38847 4.14702 2.38847 4.14703 2.38846C4.14703 2.38846 4.14704 2.38845 4.14704 2.38845C4.14705 2.38844 4.14705 2.38844 4.14706 2.38843C4.14706 2.38843 4.14707 2.38842 4.14707 2.38842C4.14708 2.38841 4.14708 2.38841 4.14709 2.3884C4.14709 2.3884 4.14709 2.3884 4.1471 2.38839C4.1471 2.38839 4.14711 2.38838 4.14711 2.38838C4.14712 2.38837 4.14712 2.38837 4.14713 2.38836C4.14713 2.38836 4.14714 2.38835 4.14714 2.38835C4.14715 2.38834 4.14715 2.38834 4.14716 2.38833C4.14716 2.38833 4.14717 2.38832 4.14717 2.38832C4.14717 2.38831 4.14718 2.38831 4.14718 2.38831C4.14719 2.3883 4.14719 2.3883 4.1472 2.38829C4.1472 2.38829 4.14721 2.38828 4.14721 2.38828C4.14722 2.38827 4.14722 2.38827 4.14723 2.38826C4.14723 2.38826 4.14724 2.38825 4.14724 2.38825C4.14725 2.38824 4.14725 2.38824 4.14725 2.38823C4.14726 2.38823 4.14726 2.38823 4.14727 2.38822C4.14727 2.38822 4.14728 2.38821 4.14728 2.38821C4.14729 2.3882 4.14729 2.3882 4.1473 2.38819C4.1473 2.38819 4.14731 2.38818 4.14731 2.38818C4.14732 2.38817 4.14732 2.38817 4.14733 2.38816C4.14733 2.38816 4.14733 2.38815 4.14734 2.38815C4.14734 2.38815 4.14735 2.38814 4.14735 2.38814C4.14736 2.38813 4.14736 2.38813 4.14737 2.38812C4.14737 2.38812 4.14738 2.38811 4.14738 2.38811C4.14739 2.3881 4.14739 2.3881 4.1474 2.38809C4.1474 2.38809 4.14741 2.38808 4.14741 2.38808C4.14742 2.38807 4.14742 2.38807 4.14742 2.38806C4.14743 2.38806 4.14743 2.38806 4.14744 2.38805C4.14744 2.38805 4.14745 2.38804 4.14745 2.38804C4.14746 2.38803 4.14746 2.38803 4.14747 2.38802C4.14747 2.38802 4.14748 2.38801 4.14748 2.38801C4.14749 2.388 4.14749 2.388 4.1475 2.38799C4.1475 2.38799 4.1475 2.38798 4.14751 2.38798C4.14751 2.38798 4.14752 2.38797 4.14752 2.38797C4.14753 2.38796 4.14753 2.38796 4.14754 2.38795C4.14754 2.38795 4.14755 2.38794 4.14755 2.38794C4.14756 2.38793 4.14756 2.38793 4.14757 2.38792C4.14757 2.38792 4.14758 2.38791 4.14758 2.38791C4.14758 2.3879 4.14759 2.3879 4.14759 2.3879C4.1476 2.38789 4.1476 2.38789 4.14761 2.38788C4.14761 2.38788 4.14762 2.38787 4.14762 2.38787C4.14763 2.38786 4.14763 2.38786 4.14764 2.38785C4.14764 2.38785 4.14765 2.38784 4.14765 2.38784C4.14766 2.38783 4.14766 2.38783 4.14766 2.38782C4.14767 2.38782 4.14767 2.38781 4.14768 2.38781C4.14768 2.38781 4.14769 2.3878 4.14769 2.3878C4.1477 2.38779 4.1477 2.38779 4.14771 2.38778C4.14771 2.38778 4.14772 2.38777 4.14772 2.38777C4.14773 2.38776 4.14773 2.38776 4.14774 2.38775C4.14774 2.38775 4.14775 2.38774 4.14775 2.38774C4.14775 2.38773 4.14776 2.38773 4.14776 2.38773C4.14777 2.38772 4.14777 2.38772 4.14778 2.38771C4.14778 2.38771 4.14779 2.3877 4.14779 2.3877C4.1478 2.38769 4.1478 2.38769 4.14781 2.38768C4.14781 2.38768 4.14782 2.38767 4.14782 2.38767C4.14783 2.38766 4.14783 2.38766 4.14783 2.38765C4.14784 2.38765 4.14784 2.38765 4.14785 2.38764C4.14785 2.38764 4.14786 2.38763 4.14786 2.38763C4.14787 2.38762 4.14787 2.38762 4.14788 2.38761C4.14788 2.38761 4.14789 2.3876 4.14789 2.3876C4.1479 2.38759 4.1479 2.38759 4.14791 2.38758C4.14791 2.38758 4.14791 2.38757 4.14792 2.38757C4.14792 2.38757 4.14793 2.38756 4.14793 2.38756C4.14794 2.38755 4.14794 2.38755 4.14795 2.38754C4.14795 2.38754 4.14796 2.38753 4.14796 2.38753C4.14797 2.38752 4.14797 2.38752 4.14798 2.38751C4.14798 2.38751 4.14799 2.3875 4.14799 2.3875C4.14799 2.38749 4.148 2.38749 4.148 2.38749C4.14801 2.38748 4.14801 2.38748 4.14802 2.38747C4.14802 2.38747 4.14803 2.38746 4.14803 2.38746C4.14804 2.38745 4.14804 2.38745 4.14805 2.38744C4.14805 2.38744 4.14806 2.38743 4.14806 2.38743C4.14807 2.38742 4.14807 2.38742 4.14808 2.38741C4.14808 2.38741 4.14808 2.3874 4.14809 2.3874C4.14809 2.3874 4.1481 2.38739 4.1481 2.38739C4.14811 2.38738 4.14811 2.38738 4.14812 2.38737C4.14812 2.38737 4.14813 2.38736 4.14813 2.38736C4.14814 2.38735 4.14814 2.38735 4.14815 2.38734C4.14815 2.38734 4.14816 2.38733 4.14816 2.38733C4.14816 2.38732 4.14817 2.38732 4.14817 2.38732C4.14818 2.38731 4.14818 2.38731 4.14819 2.3873C4.14819 2.3873 4.1482 2.38729 4.1482 2.38729C4.14821 2.38728 4.14821 2.38728 4.14822 2.38727C4.14822 2.38727 4.14823 2.38726 4.14823 2.38726C4.14824 2.38725 4.14824 2.38725 4.14824 2.38724C4.14825 2.38724 4.14825 2.38724 4.14826 2.38723C4.14826 2.38723 4.14827 2.38722 4.14827 2.38722C4.14828 2.38721 4.14828 2.38721 4.14829 2.3872C4.14829 2.3872 4.1483 2.38719 4.1483 2.38719C4.14831 2.38718 4.14831 2.38718 4.14832 2.38717C4.14832 2.38717 4.14833 2.38716 4.14833 2.38716C4.14833 2.38716 4.14834 2.38715 4.14834 2.38715C4.14835 2.38714 4.14835 2.38714 4.14836 2.38713C4.14836 2.38713 4.14837 2.38712 4.14837 2.38712C4.14838 2.38711 4.14838 2.38711 4.14839 2.3871C4.14839 2.3871 4.1484 2.38709 4.1484 2.38709C4.14841 2.38708 4.14841 2.38708 4.14841 2.38707C4.14842 2.38707 4.14842 2.38707 4.14843 2.38706C4.14843 2.38706 4.14844 2.38705 4.14844 2.38705C4.14845 2.38704 4.14845 2.38704 4.14846 2.38703C4.14846 2.38703 4.14847 2.38702 4.14847 2.38702C4.14848 2.38701 4.14848 2.38701 4.14849 2.387C4.14849 2.387 4.14849 2.38699 4.1485 2.38699C4.1485 2.38699 4.14851 2.38698 4.14851 2.38698C4.14852 2.38697 4.14852 2.38697 4.14853 2.38696C4.14853 2.38696 4.14854 2.38695 4.14854 2.38695C4.14855 2.38694 4.14855 2.38694 4.14856 2.38693C4.14856 2.38693 4.14857 2.38692 4.14857 2.38692C4.14858 2.38691 4.14858 2.38691 4.14858 2.3869C4.14859 2.3869 4.14859 2.3869 4.1486 2.38689C4.1486 2.38689 4.14861 2.38688 4.14861 2.38688C4.14862 2.38687 4.14862 2.38687 4.14863 2.38686C4.14863 2.38686 4.14864 2.38685 4.14864 2.38685C4.14865 2.38684 4.14865 2.38684 4.14866 2.38683C4.14866 2.38683 4.14866 2.38682 4.14867 2.38682C4.14867 2.38682 4.14868 2.38681 4.14868 2.38681C4.14869 2.3868 4.14869 2.3868 4.1487 2.38679C4.1487 2.38679 4.14871 2.38678 4.14871 2.38678C4.14872 2.38677 4.14872 2.38677 4.14873 2.38676C4.14873 2.38676 4.14874 2.38675 4.14874 2.38675C4.14874 2.38674 4.14875 2.38674 4.14875 2.38674C4.14876 2.38673 4.14876 2.38673 4.14877 2.38672C4.14877 2.38672 4.14878 2.38671 4.14878 2.38671C4.14879 2.3867 4.14879 2.3867 4.1488 2.38669C4.1488 2.38669 4.14881 2.38668 4.14881 2.38668C4.14882 2.38667 4.14882 2.38667 4.14882 2.38666C4.14883 2.38666 4.14883 2.38666 4.14884 2.38665C4.14884 2.38665 4.14885 2.38664 4.14885 2.38664C4.14886 2.38663 4.14886 2.38663 4.14887 2.38662C4.14887 2.38662 4.14888 2.38661 4.14888 2.38661C4.14889 2.3866 4.14889 2.3866 4.1489 2.38659C4.1489 2.38659 4.14891 2.38658 4.14891 2.38658C4.14891 2.38657 4.14892 2.38657 4.14892 2.38657C4.14893 2.38656 4.14893 2.38656 4.14894 2.38655C4.14894 2.38655 4.14895 2.38654 4.14895 2.38654C4.14896 2.38653 4.14896 2.38653 4.14897 2.38652C4.14897 2.38652 4.14898 2.38651 4.14898 2.38651C4.14899 2.3865 4.14899 2.3865 4.14899 2.38649C4.149 2.38649 4.149 2.38649 4.14901 2.38648C4.14901 2.38648 4.14902 2.38647 4.14902 2.38647C4.14903 2.38646 4.14903 2.38646 4.14904 2.38645C4.14904 2.38645 4.14905 2.38644 4.14905 2.38644C4.14906 2.38643 4.14906 2.38643 4.14907 2.38642C4.14907 2.38642 4.14907 2.38641 4.14908 2.38641C4.14908 2.38641 4.14909 2.3864 4.14909 2.3864C4.1491 2.38639 4.1491 2.38639 4.14911 2.38638C4.14911 2.38638 4.14912 2.38637 4.14912 2.38637C4.14913 2.38636 4.14913 2.38636 4.14914 2.38635C4.14914 2.38635 4.14915 2.38634 4.14915 2.38634C4.14915 2.38633 4.14916 2.38633 4.14916 2.38633C4.14917 2.38632 4.14917 2.38632 4.14918 2.38631C4.14918 2.38631 4.14919 2.3863 4.14919 2.3863C4.1492 2.38629 4.1492 2.38629 4.14921 2.38628C4.14921 2.38628 4.14922 2.38627 4.14922 2.38627C4.14923 2.38626 4.14923 2.38626 4.14924 2.38625C4.14924 2.38625 4.14924 2.38625 4.14925 2.38624C4.14925 2.38624 4.14926 2.38623 4.14926 2.38623C4.14927 2.38622 4.14927 2.38622 4.14928 2.38621C4.14928 2.38621 4.14929 2.3862 4.14929 2.3862C4.1493 2.38619 4.1493 2.38619 4.14931 2.38618C4.14931 2.38618 4.14932 2.38617 4.14932 2.38617C4.14932 2.38616 4.14933 2.38616 4.14933 2.38616C4.14934 2.38615 4.14934 2.38615 4.14935 2.38614C4.14935 2.38614 4.14936 2.38613 4.14936 2.38613C4.14937 2.38612 4.14937 2.38612 4.14938 2.38611C4.14938 2.38611 4.14939 2.3861 4.14939 2.3861C4.1494 2.38609 4.1494 2.38609 4.1494 2.38608C4.14941 2.38608 4.14941 2.38608 4.14942 2.38607C4.14942 2.38607 4.14943 2.38606 4.14943 2.38606C4.14944 2.38605 4.14944 2.38605 4.14945 2.38604C4.14945 2.38604 4.14946 2.38603 4.14946 2.38603C4.14947 2.38602 4.14947 2.38602 4.14948 2.38601C4.14948 2.38601 4.14948 2.386 4.14949 2.386C4.14949 2.38599 4.1495 2.38599 4.1495 2.38599C4.14951 2.38598 4.14951 2.38598 4.14952 2.38597C4.14952 2.38597 4.14953 2.38596 4.14953 2.38596C4.14954 2.38595 4.14954 2.38595 4.14955 2.38594C4.14955 2.38594 4.14956 2.38593 4.14956 2.38593C4.14957 2.38592 4.14957 2.38592 4.14957 2.38591C4.14958 2.38591 4.14958 2.38591 4.14959 2.3859C4.14959 2.3859 4.1496 2.38589 4.1496 2.38589C4.14961 2.38588 4.14961 2.38588 4.14962 2.38587C4.14962 2.38587 4.14963 2.38586 4.14963 2.38586C4.14964 2.38585 4.14964 2.38585 4.14965 2.38584C4.14965 2.38584 4.14965 2.38583 4.14966 2.38583C4.14966 2.38583 4.14967 2.38582 4.14967 2.38582C4.14968 2.38581 4.14968 2.38581 4.14969 2.3858C4.14969 2.3858 4.1497 2.38579 4.1497 2.38579C4.14971 2.38578 4.14971 2.38578 4.14972 2.38577C4.14972 2.38577 4.14973 2.38576 4.14973 2.38576C4.14973 2.38575 4.14974 2.38575 4.14974 2.38575C4.14975 2.38574 4.14975 2.38574 4.14976 2.38573C4.14976 2.38573 4.14977 2.38572 4.14977 2.38572C4.14978 2.38571 4.14978 2.38571 4.14979 2.3857C4.14979 2.3857 4.1498 2.38569 4.1498 2.38569C4.14981 2.38568 4.14981 2.38568 4.14982 2.38567C4.14982 2.38567 4.14982 2.38566 4.14983 2.38566C4.14983 2.38566 4.14984 2.38565 4.14984 2.38565C4.14985 2.38564 4.14985 2.38564 4.14986 2.38563C4.14986 2.38563 4.14987 2.38562 4.14987 2.38562C4.14988 2.38561 4.14988 2.38561 4.14989 2.3856C4.14989 2.3856 4.1499 2.38559 4.1499 2.38559C4.1499 2.38558 4.14991 2.38558 4.14991 2.38558C4.14992 2.38557 4.14992 2.38557 4.14993 2.38556C4.14993 2.38556 4.14994 2.38555 4.14994 2.38555C4.14995 2.38554 4.14995 2.38554 4.14996 2.38553C4.14996 2.38553 4.14997 2.38552 4.14997 2.38552C4.14998 2.38551 4.14998 2.38551 4.14998 2.3855C4.14999 2.3855 4.14999 2.3855 4.15 2.38549C4.15 2.38549 4.15001 2.38548 4.15001 2.38548C4.15002 2.38547 4.15002 2.38547 4.15003 2.38546C4.15003 2.38546 4.15004 2.38545 4.15004 2.38545C4.15005 2.38544 4.15005 2.38544 4.15006 2.38543C4.15006 2.38543 4.15006 2.38542 4.15007 2.38542C4.15007 2.38542 4.15008 2.38541 4.15008 2.38541C4.15009 2.3854 4.15009 2.3854 4.1501 2.38539C4.1501 2.38539 4.15011 2.38538 4.15011 2.38538C4.15012 2.38537 4.15012 2.38537 4.15013 2.38536C4.15013 2.38536 4.15014 2.38535 4.15014 2.38535L2.73593 0.971136ZM2.72773 2.39164L3.08075 2.74561L4.49687 1.33331L4.14385 0.979335L2.72773 2.39164ZM4.49767 2.74481C5.292 1.94654 6.37221 1.49843 7.49841 1.49998L7.50116 -0.50002C5.84191 -0.502297 4.25035 0.157901 3.07996 1.33411L4.49767 2.74481Z" fill="white" mask="url(#path-2-inside-1)"/>
<mask id="path-4-inside-2" fill="white">
<path d="M10.8568 2.39315C9.00835 0.539274 6.00699 0.534899 4.15312 2.38339C4.1498 2.38661 4.14658 2.38988 4.14331 2.39315L4.49683 2.74668C6.15018 1.08799 8.83514 1.08372 10.4938 2.73712C10.4969 2.74029 10.5002 2.74346 10.5033 2.74668L10.8568 2.39315Z"/>
</mask>
<path d="M10.8568 2.39315C9.00835 0.539274 6.00699 0.534899 4.15312 2.38339C4.1498 2.38661 4.14658 2.38988 4.14331 2.39315L4.49683 2.74668C6.15018 1.08799 8.83514 1.08372 10.4938 2.73712C10.4969 2.74029 10.5002 2.74346 10.5033 2.74668L10.8568 2.39315Z" fill="white"/>
<path d="M10.8568 2.39315L11.564 3.10021L12.2699 2.39414L11.5649 1.68708L10.8568 2.39315ZM4.15312 2.38339L4.84933 3.10136L4.8592 3.09153L4.15312 2.38339ZM4.14331 2.39315L3.4362 1.68604L2.7291 2.39315L3.4362 3.10026L4.14331 2.39315ZM4.49683 2.74668L3.78973 3.45378L4.49797 4.16203L5.20508 3.45264L4.49683 2.74668ZM10.4938 2.73712L11.2009 2.03001L11.1998 2.0289L10.4938 2.73712ZM10.5033 2.74668L9.79067 3.44819L10.4978 4.16653L11.2105 3.45373L10.5033 2.74668ZM11.5649 1.68708C9.32654 -0.5579 5.69201 -0.56319 3.44704 1.67526L4.8592 3.09153C6.32198 1.63299 8.69017 1.63645 10.1487 3.09922L11.5649 1.68708ZM3.45697 1.66549C3.45003 1.67222 3.44432 1.67791 3.44109 1.68115C3.43948 1.68276 3.43798 1.68426 3.43729 1.68496C3.43685 1.68539 3.43661 1.68563 3.43641 1.68584C3.43622 1.68603 3.43617 1.68608 3.4362 1.68604L4.85042 3.10026C4.85203 3.09865 4.85352 3.09715 4.85422 3.09644C4.85466 3.096 4.8549 3.09577 4.85511 3.09556C4.85529 3.09537 4.85534 3.09532 4.8553 3.09536C4.85524 3.09542 4.85462 3.09604 4.85365 3.097C4.85266 3.09798 4.85116 3.09946 4.84926 3.10129L3.45697 1.66549ZM3.4362 3.10026L3.78973 3.45378L5.20394 2.03957L4.85042 1.68604L3.4362 3.10026ZM5.20508 3.45264C6.46852 2.18512 8.52029 2.18185 9.78778 3.44534L11.1998 2.0289C9.14998 -0.0144176 5.83185 -0.00913656 3.78859 2.04071L5.20508 3.45264ZM9.78666 3.44423C9.78833 3.4459 9.78982 3.44738 9.79079 3.44835C9.79208 3.44963 9.79224 3.44979 9.79283 3.45038C9.79371 3.45125 9.79256 3.45011 9.79067 3.44819L11.216 2.04516C11.2109 2.04002 11.2066 2.03569 11.2043 2.03338C11.2032 2.03238 11.2018 2.03095 11.2015 2.03064C11.2009 2.03003 11.2008 2.02992 11.2009 2.03001L9.78666 3.44423ZM11.2105 3.45373L11.564 3.10021L10.1496 1.68609L9.79617 2.03962L11.2105 3.45373Z" fill="white" mask="url(#path-4-inside-2)"/>
<mask id="path-6-inside-3" fill="white">
<path d="M10.1516 3.09794C8.6872 1.6337 6.31307 1.6337 4.84863 3.09794L5.20165 3.45221C6.47065 2.18277 8.52842 2.18242 9.79787 3.45141C9.79812 3.45166 9.79837 3.45191 9.79867 3.45221L10.1516 3.09794Z"/>
</mask>
<path d="M10.1516 3.09794C8.6872 1.6337 6.31307 1.6337 4.84863 3.09794L5.20165 3.45221C6.47065 2.18277 8.52842 2.18242 9.79787 3.45141C9.79812 3.45166 9.79837 3.45191 9.79867 3.45221L10.1516 3.09794Z" fill="white"/>
<path d="M10.1516 3.09794L10.8601 3.80373L11.5646 3.09658L10.8587 2.39078L10.1516 3.09794ZM4.84863 3.09794L4.14157 2.39078L3.43563 3.09663L4.14027 3.80378L4.84863 3.09794ZM5.20165 3.45221L4.49329 4.15806L5.20052 4.86781L5.90889 4.1592L5.20165 3.45221ZM9.79787 3.45141L10.505 2.74429L10.5048 2.74418L9.79787 3.45141ZM9.79867 3.45221L9.09155 4.15931L9.79997 4.86775L10.5071 4.15801L9.79867 3.45221ZM10.8587 2.39078C9.00375 0.536081 5.99653 0.536081 4.14157 2.39078L5.55569 3.80509C6.62962 2.73131 8.37066 2.73131 9.44459 3.80509L10.8587 2.39078ZM4.14027 3.80378L4.49329 4.15806L5.91002 2.74637L5.557 2.39209L4.14027 3.80378ZM5.90889 4.1592C6.78742 3.28035 8.21203 3.2801 9.09089 4.15864L10.5048 2.74418C8.84481 1.08473 6.15388 1.08519 4.49442 2.74523L5.90889 4.1592ZM9.09078 4.15854C9.09102 4.15877 9.09126 4.15901 9.09155 4.15931L10.5058 2.74512C10.5055 2.74481 10.5052 2.74455 10.505 2.74429L9.09078 4.15854ZM10.5071 4.15801L10.8601 3.80373L9.44323 2.39214L9.09026 2.74642L10.5071 4.15801Z" fill="white" mask="url(#path-6-inside-3)"/>
<mask id="path-8-inside-4" fill="white">
<path d="M9.44413 3.80577C8.37123 2.73202 6.63097 2.73131 5.55717 3.80426C5.55667 3.80476 5.55617 3.80526 5.55566 3.80577L5.90914 4.15929C6.78779 3.28094 8.212 3.28094 9.09065 4.15929L9.44413 3.80577Z"/>
</mask>
<path d="M9.44413 3.80577C8.37123 2.73202 6.63097 2.73131 5.55717 3.80426C5.55667 3.80476 5.55617 3.80526 5.55566 3.80577L5.90914 4.15929C6.78779 3.28094 8.212 3.28094 9.09065 4.15929L9.44413 3.80577Z" fill="white"/>
<path d="M9.44413 3.80577L10.1513 4.51282L10.858 3.806L10.1515 3.09894L9.44413 3.80577ZM5.55717 3.80426L4.85035 3.09687L4.85008 3.09714L5.55717 3.80426ZM5.55566 3.80577L4.84856 3.09866L4.1415 3.80571L4.84851 4.51282L5.55566 3.80577ZM5.90914 4.15929L5.20198 4.86635L5.90897 5.57343L6.61612 4.86652L5.90914 4.15929ZM9.09065 4.15929L8.38367 4.86652L9.09082 5.57343L9.79781 4.86635L9.09065 4.15929ZM10.1515 3.09894C8.68825 1.6345 6.31482 1.63356 4.85035 3.09687L6.264 4.51164C6.94712 3.82906 8.05422 3.82953 8.73674 4.51259L10.1515 3.09894ZM4.85008 3.09714C4.84957 3.09765 4.84905 3.09817 4.84856 3.09866L6.26277 4.51287C6.26329 4.51236 6.26377 4.51187 6.26427 4.51137L4.85008 3.09714ZM4.84851 4.51282L5.20198 4.86635L6.61629 3.45223L6.26282 3.09871L4.84851 4.51282ZM6.61612 4.86652C7.10428 4.37853 7.89551 4.37853 8.38367 4.86652L9.79764 3.45206C8.52849 2.18335 6.4713 2.18335 5.20215 3.45206L6.61612 4.86652ZM9.79781 4.86635L10.1513 4.51282L8.73697 3.09871L8.3835 3.45223L9.79781 4.86635Z" fill="white" mask="url(#path-8-inside-4)"/>
<mask id="path-10-inside-5" fill="white">
<path d="M8.02656 4.71851C7.73117 4.43872 7.26861 4.43872 6.97328 4.71851C6.82938 4.85778 6.74866 5.04975 6.74977 5.25003C6.74977 5.66421 7.08559 6.00003 7.49977 6.00003C7.914 6.00003 8.24982 5.66421 8.24982 5.25003C8.25138 5.05207 8.17261 4.8619 8.03154 4.72299L8.02827 4.72052L8.02656 4.71851ZM7.49977 5.5C7.36171 5.5 7.2498 5.38809 7.2498 5.25003C7.24965 5.18263 7.27746 5.11821 7.32655 5.07203C7.37197 5.02531 7.43458 4.99931 7.49977 5.00001C7.56721 4.99981 7.63174 5.02747 7.67801 5.07651C7.72438 5.12228 7.75029 5.18485 7.74978 5.25003C7.74978 5.38809 7.63788 5.5 7.49977 5.5Z"/>
</mask>
<path d="M8.02656 4.71851C7.73117 4.43872 7.26861 4.43872 6.97328 4.71851C6.82938 4.85778 6.74866 5.04975 6.74977 5.25003C6.74977 5.66421 7.08559 6.00003 7.49977 6.00003C7.914 6.00003 8.24982 5.66421 8.24982 5.25003C8.25138 5.05207 8.17261 4.8619 8.03154 4.72299L8.02827 4.72052L8.02656 4.71851ZM7.49977 5.5C7.36171 5.5 7.2498 5.38809 7.2498 5.25003C7.24965 5.18263 7.27746 5.11821 7.32655 5.07203C7.37197 5.02531 7.43458 4.99931 7.49977 5.00001C7.56721 4.99981 7.63174 5.02747 7.67801 5.07651C7.72438 5.12228 7.75029 5.18485 7.74978 5.25003C7.74978 5.38809 7.63788 5.5 7.49977 5.5Z" fill="white"/>
<path d="M8.02656 4.71851L8.7885 4.07086L8.75349 4.02968L8.71424 3.9925L8.02656 4.71851ZM6.97328 4.71851L6.28549 3.99252L6.27782 3.99994L6.97328 4.71851ZM6.74977 5.25003H7.74978L7.74975 5.2445L6.74977 5.25003ZM8.24982 5.25003L7.24982 5.24215V5.25003H8.24982ZM8.03154 4.72299L8.73316 4.01044L8.68617 3.96417L8.6335 3.92446L8.03154 4.72299ZM8.02827 4.72052L7.26633 5.36817L7.33797 5.45246L7.4263 5.51905L8.02827 4.72052ZM7.2498 5.25003H8.2498L8.2498 5.24779L7.2498 5.25003ZM7.32655 5.07203L8.01168 5.80045L8.028 5.7851L8.04362 5.76904L7.32655 5.07203ZM7.49977 5.00001L7.48896 6.00005L7.50275 6.00001L7.49977 5.00001ZM7.67801 5.07651L6.95069 5.76281L6.96289 5.77574L6.97555 5.78823L7.67801 5.07651ZM7.74978 5.25003L6.74978 5.24231V5.25003H7.74978ZM8.71424 3.9925C8.03321 3.34742 6.96659 3.34734 6.28553 3.99256L7.66103 5.44446C7.57063 5.5301 7.42914 5.53002 7.33887 5.44452L8.71424 3.9925ZM6.27782 3.99994C5.93785 4.32898 5.74717 4.78255 5.74978 5.25555L7.74975 5.2445C7.75015 5.31696 7.72092 5.38657 7.66874 5.43708L6.27782 3.99994ZM5.74977 5.25003C5.74977 6.21649 6.5333 7.00003 7.49977 7.00003V5.00003C7.63787 5.00003 7.74977 5.11192 7.74977 5.25003H5.74977ZM7.49977 7.00003C8.46624 7.00003 9.24982 6.21654 9.24982 5.25003H7.24982C7.24982 5.11188 7.36176 5.00003 7.49977 5.00003V7.00003ZM9.24979 5.2579C9.25348 4.78927 9.06704 4.3392 8.73316 4.01044L7.32991 5.43553C7.27819 5.38461 7.24928 5.31486 7.24985 5.24215L9.24979 5.2579ZM8.6335 3.92446L8.63023 3.922L7.4263 5.51905L7.42957 5.52151L8.6335 3.92446ZM8.79021 4.07287L8.7885 4.07086L7.26462 5.36616L7.26633 5.36817L8.79021 4.07287ZM7.49977 4.5C7.91399 4.5 8.2498 4.8358 8.2498 5.25003H6.2498C6.2498 5.94037 6.80942 6.5 7.49977 6.5V4.5ZM8.2498 5.24779C8.25027 5.4575 8.16374 5.65743 8.01168 5.80045L6.64142 4.34362C6.39119 4.57898 6.24903 4.90777 6.2498 5.25227L8.2498 5.24779ZM8.04362 5.76904C7.89767 5.91919 7.69698 6.0022 7.48897 5.99995L7.51057 4.00007C7.17219 3.99642 6.84627 4.13143 6.60948 4.37503L8.04362 5.76904ZM7.50275 6.00001C7.29449 6.00063 7.09448 5.91519 6.95069 5.76281L8.40534 4.39022C8.169 4.13976 7.83994 3.99899 7.49678 4.00002L7.50275 6.00001ZM6.97555 5.78823C6.82981 5.64439 6.74823 5.44752 6.74981 5.24231L8.74975 5.25774C8.75234 4.92217 8.61896 4.60017 8.38047 4.36479L6.97555 5.78823ZM6.74978 5.25003C6.74978 4.83567 7.08572 4.5 7.49977 4.5V6.5C8.19003 6.5 8.74978 5.9405 8.74978 5.25003H6.74978Z" fill="white" mask="url(#path-10-inside-5)"/>
</svg>
