<svg width="21" height="22" viewBox="0 0 21 22" version="1.1" xmlns="http://www.w3.org/2000/svg" xmlns:xlink="http://www.w3.org/1999/xlink">
<title>ic_settings</title>
<desc>Created using Figma</desc>
<g id="Canvas" transform="translate(-5059 2424)">
<g id="ic_settings">
<use xlink:href="#path0_stroke" transform="translate(5060 -2423)"/>
</g>
</g>
<defs>
<path id="path0_stroke" d="M 16.7587 10.98L 16.0142 10.8891L 15.9635 11.3041L 16.2899 11.5655L 16.7587 10.98ZM 16.7587 9.02L 16.2899 8.43455L 15.9635 8.69587L 16.0142 9.11089L 16.7587 9.02ZM 18.8194 7.37L 19.2882 7.95546L 19.2909 7.95327L 18.8194 7.37ZM 18.9366 6.73L 19.5985 6.37738L 19.5942 6.36928L 19.5897 6.36129L 18.9366 6.73ZM 16.9833 3.27L 16.3214 3.62262L 16.3257 3.63072L 16.3302 3.63871L 16.9833 3.27ZM 16.3875 3.05L 16.1258 2.34714L 16.114 2.35155L 16.1023 2.35636L 16.3875 3.05ZM 13.9557 4.05L 13.4916 4.63919L 13.8358 4.91025L 14.2409 4.74364L 13.9557 4.05ZM 12.3051 3.07L 11.5624 3.17402L 11.6216 3.5965L 12.0149 3.76158L 12.3051 3.07ZM 11.934 0.42L 11.1894 0.510901L 11.1913 0.524021L 11.934 0.42ZM 7.0703 0.42L 7.81316 0.524037L 7.81477 0.510885L 7.0703 0.42ZM 6.69917 3.07L 6.98938 3.76158L 7.38275 3.5965L 7.44192 3.17402L 6.69917 3.07ZM 5.04863 4.05L 4.7634 4.74364L 5.16286 4.90791L 5.50543 4.64484L 5.04863 4.05ZM 2.61677 3.05L 2.90201 2.35633L 2.89571 2.3538L 2.61677 3.05ZM 2.02101 3.27L 2.67413 3.63871L 2.67863 3.63072L 2.68295 3.62262L 2.02101 3.27ZM 0.0677127 6.73L 0.717328 7.1049L 0.720825 7.09871L 0.0677127 6.73ZM 0.184911 7.37L -0.286579 7.95327L -0.283855 7.95546L 0.184911 7.37ZM 2.24564 9.02L 2.99012 9.11089L 3.04078 8.69587L 2.71441 8.43454L 2.24564 9.02ZM 2.24564 10.98L 2.71441 11.5655L 3.04078 11.3041L 2.99012 10.8891L 2.24564 10.98ZM 0.184911 12.63L -0.283861 12.0445L -0.286573 12.0467L 0.184911 12.63ZM 0.0677127 13.27L -0.594221 13.6226L -0.589909 13.6307L -0.585399 13.6387L 0.0677127 13.27ZM 2.02101 16.73L 2.68295 16.3774L 2.67863 16.3693L 2.67413 16.3613L 2.02101 16.73ZM 2.61677 16.95L 2.87847 17.6529L 2.89031 17.6485L 2.902 17.6436L 2.61677 16.95ZM 5.04863 15.95L 5.51269 15.3608L 5.16855 15.0898L 4.7634 15.2564L 5.04863 15.95ZM 6.69917 16.93L 7.44192 16.826L 7.38275 16.4035L 6.98938 16.2384L 6.69917 16.93ZM 7.0703 19.58L 7.81489 19.4891L 7.81305 19.476L 7.0703 19.58ZM 11.934 19.58L 11.1911 19.476L 11.1895 19.4891L 11.934 19.58ZM 12.3051 16.93L 12.0149 16.2384L 11.6216 16.4035L 11.5624 16.826L 12.3051 16.93ZM 13.9557 15.95L 14.2409 15.2564L 13.8415 15.0921L 13.4989 15.3552L 13.9557 15.95ZM 16.3875 16.95L 16.1023 17.6437L 16.1086 17.6462L 16.3875 16.95ZM 16.9833 16.73L 16.3302 16.3613L 16.3257 16.3693L 16.3214 16.3774L 16.9833 16.73ZM 18.9366 13.27L 19.5897 13.6387L 19.5942 13.6307L 19.5985 13.6226L 18.9366 13.27ZM 18.8194 12.63L 19.2909 12.0467L 19.2882 12.0445L 18.8194 12.63ZM 17.5031 11.0709C 17.544 10.7366 17.577 10.383 17.577 10L 16.077 10C 16.077 10.297 16.0515 10.5834 16.0142 10.8891L 17.5031 11.0709ZM 17.577 10C 17.577 9.61702 17.544 9.26344 17.5031 8.92911L 16.0142 9.11089C 16.0515 9.41656 16.077 9.70298 16.077 10L 17.577 10ZM 17.2274 9.60546L 19.2882 7.95546L 18.3506 6.78454L 16.2899 8.43455L 17.2274 9.60546ZM 19.2909 7.95327C 19.7762 7.56093 19.8722 6.89117 19.5985 6.37738L 18.2747 7.08262C 18.2354 7.00883 18.2337 6.87907 18.3479 6.78673L 19.2909 7.95327ZM 19.5897 6.36129L 17.6364 2.90129L 16.3302 3.63871L 18.2835 7.09871L 19.5897 6.36129ZM 17.6452 2.91738C 17.335 2.33501 16.6592 2.14855 16.1258 2.34714L 16.6492 3.75286C 16.5881 3.77563 16.5277 3.77402 16.4749 3.7556C 16.4178 3.73568 16.3579 3.69126 16.3214 3.62262L 17.6452 2.91738ZM 16.1023 2.35636L 13.6705 3.35636L 14.2409 4.74364L 16.6728 3.74364L 16.1023 2.35636ZM 14.4197 3.46081C 13.8631 3.02241 13.2583 2.65661 12.5954 2.37842L 12.0149 3.76158C 12.5435 3.98339 13.0325 4.27759 13.4916 4.63919L 14.4197 3.46081ZM 13.0479 2.96598L 12.6768 0.315979L 11.1913 0.524021L 11.5624 3.17402L 13.0479 2.96598ZM 12.6785 0.329113C 12.6026 -0.292893 12.0729 -0.75 11.4555 -0.75L 11.4555 0.75C 11.3264 0.75 11.2069 0.652892 11.1895 0.510887L 12.6785 0.329113ZM 11.4555 -0.75L 7.54886 -0.75L 7.54886 0.75L 11.4555 0.75L 11.4555 -0.75ZM 7.54886 -0.75C 6.93144 -0.75 6.40176 -0.292893 6.32582 0.329115L 7.81477 0.510885C 7.79743 0.652893 7.67795 0.75 7.54886 0.75L 7.54886 -0.75ZM 6.32755 0.315979L 5.95642 2.96598L 7.44192 3.17402L 7.81305 0.524021L 6.32755 0.315979ZM 6.40896 2.37842C 5.74075 2.65883 5.13829 3.03552 4.59183 3.45516L 5.50543 4.64484C 5.97469 4.28448 6.46608 3.98117 6.98938 3.76158L 6.40896 2.37842ZM 5.33386 3.35636L 2.902 2.35636L 2.33154 3.74364L 4.7634 4.74364L 5.33386 3.35636ZM 2.89571 2.3538C 2.31609 2.12157 1.65644 2.35918 1.35908 2.91738L 2.68295 3.62262C 2.61998 3.74082 2.46819 3.79843 2.33783 3.7462L 2.89571 2.3538ZM 1.3679 2.90129L -0.585399 6.36129L 0.720825 7.09871L 2.67413 3.63871L 1.3679 2.90129ZM -0.581873 6.35512C -0.897955 6.90281 -0.751953 7.57708 -0.286574 7.95327L 0.656395 6.78673C 0.750647 6.86292 0.779451 6.99719 0.717299 7.10488L -0.581873 6.35512ZM -0.283855 7.95546L 1.77688 9.60546L 2.71441 8.43454L 0.653677 6.78454L -0.283855 7.95546ZM 1.50117 8.92911C 1.46027 9.26414 1.42728 9.62746 1.42728 10L 2.92728 10C 2.92728 9.71254 2.95288 9.41586 2.99012 9.11089L 1.50117 8.92911ZM 1.42728 10C 1.42728 10.3725 1.46027 10.7359 1.50117 11.0709L 2.99012 10.8891C 2.95288 10.5841 2.92728 10.2875 2.92728 10L 1.42728 10ZM 1.77688 10.3945L -0.283855 12.0445L 0.653677 13.2155L 2.71441 11.5655L 1.77688 10.3945ZM -0.286573 12.0467C -0.771929 12.4391 -0.867924 13.1088 -0.594221 13.6226L 0.729647 12.9174C 0.768953 12.9912 0.770623 13.1209 0.656394 13.2133L -0.286573 12.0467ZM -0.585399 13.6387L 1.3679 17.0987L 2.67413 16.3613L 0.720825 12.9013L -0.585399 13.6387ZM 1.35908 17.0826C 1.66932 17.665 2.34509 17.8515 2.87847 17.6529L 2.35507 16.2471C 2.41621 16.2244 2.47666 16.226 2.52944 16.2444C 2.58651 16.2643 2.64638 16.3087 2.68295 16.3774L 1.35908 17.0826ZM 2.902 17.6436L 5.33386 16.6436L 4.7634 15.2564L 2.33154 16.2564L 2.902 17.6436ZM 4.58457 16.5392C 5.14118 16.9776 5.74603 17.3434 6.40896 17.6216L 6.98938 16.2384C 6.4608 16.0166 5.9718 15.7224 5.51269 15.3608L 4.58457 16.5392ZM 5.95642 17.034L 6.32755 19.684L 7.81305 19.476L 7.44192 16.826L 5.95642 17.034ZM 6.32582 19.6709C 6.40176 20.2929 6.93144 20.75 7.54886 20.75L 7.54886 19.25C 7.67795 19.25 7.79743 19.3471 7.81477 19.4891L 6.32582 19.6709ZM 7.54886 20.75L 11.4555 20.75L 11.4555 19.25L 7.54886 19.25L 7.54886 20.75ZM 11.4555 20.75C 12.0729 20.75 12.6026 20.2929 12.6785 19.6709L 11.1895 19.4891C 11.2069 19.3471 11.3264 19.25 11.4555 19.25L 11.4555 20.75ZM 12.6768 19.684L 13.0479 17.034L 11.5624 16.826L 11.1913 19.476L 12.6768 19.684ZM 12.5954 17.6216C 13.2636 17.3412 13.866 16.9645 14.4125 16.5448L 13.4989 15.3552C 13.0296 15.7155 12.5382 16.0188 12.0149 16.2384L 12.5954 17.6216ZM 13.6705 16.6436L 16.1023 17.6436L 16.6728 16.2564L 14.2409 15.2564L 13.6705 16.6436ZM 16.1086 17.6462C 16.6882 17.8784 17.3479 17.6408 17.6452 17.0826L 16.3214 16.3774C 16.3843 16.2592 16.5361 16.2016 16.6665 16.2538L 16.1086 17.6462ZM 17.6364 17.0987L 19.5897 13.6387L 18.2835 12.9013L 16.3302 16.3613L 17.6364 17.0987ZM 19.5985 13.6226C 19.8722 13.1088 19.7762 12.4391 19.2909 12.0467L 18.3479 13.2133C 18.2337 13.1209 18.2354 12.9912 18.2747 12.9174L 19.5985 13.6226ZM 19.2882 12.0445L 17.2274 10.3945L 16.2899 11.5655L 18.3506 13.2155L 19.2882 12.0445ZM 9.50226 12.7502C 8.04815 12.7502 6.83398 11.5328 6.83398 10.0002L 5.33398 10.0002C 5.33398 12.3277 7.18651 14.2502 9.50226 14.2502L 9.50226 12.7502ZM 6.83398 10.0002C 6.83398 8.46765 8.04815 7.25024 9.50226 7.25024L 9.50226 5.75024C 7.18651 5.75024 5.33398 7.67283 5.33398 10.0002L 6.83398 10.0002ZM 9.50226 7.25024C 10.9564 7.25024 12.1705 8.46765 12.1705 10.0002L 13.6705 10.0002C 13.6705 7.67283 11.818 5.75024 9.50226 5.75024L 9.50226 7.25024ZM 12.1705 10.0002C 12.1705 11.5328 10.9564 12.7502 9.50226 12.7502L 9.50226 14.2502C 11.818 14.2502 13.6705 12.3277 13.6705 10.0002L 12.1705 10.0002Z"/>
</defs>
</svg>
