<?xml version="1.0" standalone="no"?>
<!DOCTYPE svg PUBLIC "-//W3C//DTD SVG 20010904//EN"
 "http://www.w3.org/TR/2001/REC-SVG-20010904/DTD/svg10.dtd">
<svg version="1.0" xmlns="http://www.w3.org/2000/svg"
 width="300.000000pt" height="300.000000pt" viewBox="0 0 300.000000 300.000000"
 preserveAspectRatio="xMidYMid meet">
<metadata>
Created by potrace 1.10, written by Peter Selinger 2001-2011
</metadata>
<g transform="translate(0.000000,300.000000) scale(0.050000,-0.050000)"
fill="#000000" stroke="none">
<path d="M823 5959 c-382 -100 -685 -405 -783 -790 -48 -185 -63 -3976 -18
-4193 80 -382 390 -719 765 -834 184 -56 4089 -67 4302 -11 365 95 685 415
780 780 56 213 45 4118 -11 4302 -115 375 -452 685 -834 765 -212 44 -4025 28
-4201 -19z m4269 -483 c134 -71 276 -230 322 -362 34 -98 36 -221 36 -2084 l0
-1980 -52 -111 c-74 -158 -162 -249 -314 -324 l-133 -65 -1981 0 c-1863 0
-1986 2 -2084 36 -132 46 -291 188 -362 322 l-54 102 -5 2003 c-7 2308 -21
2130 186 2337 203 203 20 189 2329 184 l2010 -4 102 -54z"/>
<path d="M2386 4602 c-96 -60 -106 -96 -106 -381 l0 -261 -471 0 c-522 0 -583
-11 -638 -117 -27 -53 -31 -201 -31 -1154 l0 -1093 68 -68 68 -68 272 0 272 0
0 417 c0 451 8 483 115 483 98 0 105 -32 105 -481 l0 -419 230 0 230 0 0 417
c0 451 8 483 115 483 98 0 105 -32 105 -481 l0 -419 230 0 230 0 0 417 c0 445
8 483 108 483 110 0 112 -7 112 -471 l0 -429 230 0 230 0 0 406 c0 460 11 501
126 490 103 -10 113 -56 114 -501 l0 -395 251 0 c458 0 429 -84 429 1240 0
1379 63 1260 -663 1260 l-474 0 -6 270 -7 269 -65 66 -66 65 -524 5 c-493 6
-529 3 -589 -33z"/>
</g>
</svg>
