<svg width="30" height="30" viewBox="0 0 30 30" fill="none" xmlns="http://www.w3.org/2000/svg">
<path fill-rule="evenodd" clip-rule="evenodd" d="M14.875 0H2.125C0.95625 0 0 1.125 0 2.5V17.5C0 18.875 0.95625 20 2.125 20H14.875C16.0438 20 17 18.875 17 17.5V2.5C17 1.125 16.0438 0 14.875 0V0ZM15 10H2V8H15V10ZM15 14H2V12H15V14ZM15 6H2V4H15V6V6Z" fill="#122D54"/>
<path d="M25.9412 10.0285L26.0079 10.0896L26.6849 9.4126L27.7071 8.39038L28.4142 7.68327L27.7071 6.97617C25.7286 4.99761 23.1733 3.99994 20.6111 3.99994C18.0489 3.99994 15.4937 4.99761 13.5151 6.97617L12.808 7.68327L13.5151 8.39038L14.5373 9.4126L15.2144 10.0896L15.281 10.0285L15.6873 10.4348L16.7096 11.457L17.4167 12.1642L18.1238 11.457C18.8036 10.7773 19.6853 10.4722 20.6111 10.4722C21.5369 10.4722 22.4187 10.7773 23.0984 11.457L23.8056 12.1642L24.5127 11.457L25.5349 10.4348L25.9412 10.0285ZM18.3333 16.7777H6.55556C4.59772 16.7777 3 18.3754 3 20.3333V25.4444C3 27.4022 4.59772 28.9999 6.55556 28.9999H24.4444C26.4023 28.9999 28 27.4022 28 25.4444V20.3333C28 18.3754 26.4023 16.7777 24.4444 16.7777H22.8889V12.6666V11.6666H21.8889H19.3333H18.3333V12.6666V16.7777ZM9.38889 23.1666H8.83333V22.611H9.38889V23.1666ZM13.8611 23.1666H13.3056V22.611H13.8611V23.1666ZM18.3333 23.1666H17.7778V22.611H18.3333V23.1666Z" fill="#122D54" stroke="white" stroke-width="2"/>
</svg>
